<svg width="18" height="18" viewBox="0 0 18 18" fill="none" xmlns="http://www.w3.org/2000/svg">
<path d="M17.3301 0H0.705752C0.313668 0 0 0.313725 0 0.705882V17.2941C0 17.6863 0.313668 18 0.705752 18H17.2909C17.683 18 17.9967 17.6863 17.9967 17.2941V0.705882C18.0359 0.313725 17.7222 0 17.3301 0ZM13.3309 9.56863C13.3309 9.68627 13.2525 9.7647 13.1348 9.7647H9.7237V13.1765C9.7237 13.2941 9.64528 13.3725 9.52766 13.3725H8.42982C8.31219 13.3725 8.23378 13.2941 8.23378 13.1765V9.7647H4.82264C4.70502 9.7647 4.6266 9.68627 4.6266 9.56863V8.47059C4.6266 8.35294 4.70502 8.27451 4.82264 8.27451H8.23378V4.86274C8.23378 4.7451 8.31219 4.66667 8.42982 4.66667H9.52766C9.64528 4.66667 9.7237 4.7451 9.7237 4.86274V8.27451H13.1348C13.2525 8.27451 13.3309 8.35294 13.3309 8.47059V9.56863Z" fill="#666666"/>
</svg>
