<svg width="16" height="21" viewBox="0 0 16 21" fill="none" xmlns="http://www.w3.org/2000/svg">
<path d="M15.9325 2.62051H4.55696C4.21941 2.62051 3.91561 2.33333 3.91561 1.93846C3.91561 1.57949 4.18565 1.25641 4.55696 1.25641H15.0211C15.2236 1.14872 15.3586 0.933333 15.3586 0.682051C15.3586 0.323077 15.0886 0 14.7173 0H4.32067C3.24051 0 2.49789 0.323077 2.09283 1.00513C1.82278 1.47179 1.72152 2.01026 1.72152 2.44103V2.8V4.73846V5.42051H0.64135C0.303797 5.42051 0 5.70769 0 6.10256C0 6.46154 0.270042 6.78462 0.64135 6.78462H1.75527V7.46667V9.90769V10.5897H0.64135C0.303797 10.5897 0 10.8769 0 11.2718C0 11.6308 0.270042 11.9538 0.64135 11.9538H1.75527V12.5641V15.0051V15.6872H0.64135C0.303797 15.6872 0 15.9744 0 16.3692C0 16.7282 0.270042 17.0513 0.64135 17.0513H1.75527V17.7333V18.7744V19.2769C1.75527 19.9231 2.09283 20.3897 2.59916 20.6769C3.03797 20.9282 3.64557 21 4.25316 21H16V2.62051C15.9662 2.62051 15.9662 2.62051 15.9325 2.62051ZM9.48523 7.17949C10.4979 7.17949 11.308 8.04103 11.308 9.11795C11.308 10.1949 10.4979 11.0564 9.48523 11.0564C8.47257 11.0564 7.66245 10.1949 7.66245 9.11795C7.66245 8.04103 8.47257 7.17949 9.48523 7.17949ZM12.7595 15.2564H6.21097V14.8974C6.21097 13.8564 6.58228 13.1026 7.22363 12.6C7.83122 12.0974 8.64135 11.9179 9.51899 11.9179C10.3629 11.9179 11.173 12.1333 11.8143 12.6C12.4219 13.1026 12.827 13.8564 12.827 14.8974V15.2564H12.7595Z" fill="#666666"/>
</svg>
