<svg width="374" height="295" viewBox="0 0 374 295" fill="none" xmlns="http://www.w3.org/2000/svg">
<g opacity="0.3">
<path d="M1.06026 10.6339C2.5126 5.39928 7.3127 1.3197 12.7282 0.729877C18.7837 0.0663296 24.0515 3.94931 29.147 6.57892C39.7564 12.0348 51.8674 12.9686 63.6092 12.7966C75.0309 12.6246 86.4527 11.3712 97.8744 12.2805C108.41 13.1161 119.29 15.7211 127.684 22.4795C131.943 25.8955 137.063 31.4005 135.66 37.3724C134.971 40.297 132.73 42.4351 130.564 44.4011C128.103 46.6376 125.616 48.8248 123.13 51.0612C118.256 55.4357 113.481 60.056 108.139 63.8406C103.019 67.4779 97.2837 69.8126 91.2281 71.3854C84.8773 73.032 78.3541 74.0888 71.9047 75.3176C65.2338 76.5955 58.5629 77.8734 51.8674 79.1514C48.7412 79.7412 45.3196 80.8225 42.1195 80.6014C39.141 80.4048 37.1225 78.4633 36.4579 75.637C35.3748 70.9676 36.9994 66.1262 36.581 61.4076C36.1379 56.4187 34.0701 51.6264 30.8208 47.8172C27.5962 44.0571 23.313 41.8944 18.9314 39.7563C14.7221 37.7165 10.0697 35.603 7.21423 31.7446C5.88497 29.926 5.29419 27.8124 4.43264 25.7726C3.44801 23.4625 2.41414 21.1524 1.67566 18.7685C0.863338 16.0898 0.395637 13.3373 1.06026 10.6339C1.18334 10.167 0.469493 9.97039 0.346414 10.4373C-0.908995 15.5983 1.50336 20.7592 3.49724 25.404C4.40803 27.5667 5.02342 29.8768 6.40191 31.8183C7.6327 33.5632 9.25735 34.9886 11.0051 36.2174C15.1405 39.0682 19.9406 40.7885 24.273 43.3198C29.2947 46.2443 33.0609 50.9137 34.8578 56.4433C35.7194 59.0975 36.0886 61.8746 35.9409 64.6762C35.7932 67.1584 35.4486 69.6405 35.4486 72.1227C35.4486 74.2116 35.6455 76.4726 36.7779 78.2912C37.9594 80.1836 39.9779 81.1912 42.1687 81.314C45.4673 81.5352 48.9135 80.4293 52.1135 79.8395C55.609 79.1759 59.1044 78.5124 62.5999 77.8243C69.64 76.4726 76.7048 75.1701 83.7449 73.7938C90.0466 72.5405 96.3975 71.0905 102.231 68.2643C108.041 65.4381 112.939 61.1864 117.715 56.9348C120.324 54.6247 122.909 52.29 125.493 49.9799C128.004 47.7435 130.638 45.5562 133.026 43.1724C134.872 41.28 136.398 39.0682 136.644 36.3648C136.891 33.6861 135.931 31.0565 134.552 28.7955C131.77 24.2244 127.167 20.6855 122.515 18.1296C117.789 15.5491 112.619 13.8779 107.327 12.8458C95.9052 10.5848 84.2865 11.2483 72.7416 11.789C60.1137 12.3788 46.9688 12.7475 34.9071 8.32381C31.7562 7.16875 28.827 5.59589 25.8977 3.97388C23.3376 2.54849 20.7037 1.14766 17.8237 0.434964C12.802 -0.818404 7.58347 0.680723 3.94032 4.3671C2.26644 6.08741 1.03566 8.17635 0.395649 10.4865C0.223338 10.9043 0.937185 11.1009 1.06026 10.6339Z" transform="translate(393.553 224.502) rotate(118.72)" fill="#BEBEBE"/>
<path d="M198.996 41.8846C200.079 43.949 200.522 46.2346 200.497 48.5693C200.473 50.3387 200.005 52.0099 199.857 53.7793C199.513 57.8835 198.528 61.9139 197.149 65.7969C196.386 67.935 195.525 70.024 194.639 72.0883C193.777 74.1281 193.014 76.6349 191.365 78.1831C189.74 79.6823 187.377 80.5916 185.482 81.6729C183.488 82.8034 181.543 83.983 179.549 85.1135C175.414 87.4728 171.204 89.7092 166.675 91.2575C162.023 92.8303 157.173 93.7888 152.299 94.182C147.253 94.5752 142.207 94.2803 137.185 94.0837C132.311 93.8871 127.413 93.9117 122.539 94.2557C112.988 94.9439 103.486 96.6396 94.3045 99.3675C87.9782 101.235 81.7504 103.423 75.4487 105.364C72.5933 106.249 69.7132 107.133 66.8085 107.871C64.4454 108.461 62.1315 108.239 59.793 107.625C54.0575 106.15 47.6082 102.636 44.9989 97.0328C44.6789 96.3693 44.5804 95.632 44.285 94.9439C43.9896 94.2803 43.2512 93.7642 42.8327 93.1252C41.8235 91.6507 41.3065 89.8812 41.0358 88.1364C40.4204 84.3763 40.8388 80.5916 40.568 76.8069C40.0265 69.3358 36.3834 62.4055 30.8448 57.392C25.577 52.6243 18.7338 50.2404 13.0721 46.0379C10.1675 43.8753 7.65665 41.1965 6.1797 37.8788C5.44122 36.2322 4.92429 34.4873 4.28427 32.8161C3.5458 30.8992 2.80733 29.0069 2.21655 27.0408C0.936527 22.9367 0.271899 18.6359 1.47808 14.4334C2.53656 10.7716 4.72737 7.47845 7.63204 5.04544C10.8075 2.36668 14.7706 0.892128 18.9307 0.769249C23.7062 0.621794 28.4078 1.97347 32.9864 3.25141C50.8575 8.2403 69.3686 9.5674 87.7813 11.2386C92.7044 11.6809 97.603 12.369 102.526 12.8114C106.711 13.2046 110.92 13.0326 115.105 13.0817C119.339 13.1063 123.671 13.2783 127.757 14.5317C129.801 15.1461 131.671 16.1783 133.641 16.9647C135.782 17.8249 137.998 18.513 140.262 19.0537C148.607 21.0935 157.272 21.0443 165.764 22.1011C174.971 23.2561 184.497 25.8858 191.512 32.2263C194.393 34.9788 196.977 38.2474 198.996 41.8846C199.217 42.3024 199.857 41.9338 199.636 41.516C195.402 33.9221 188.903 28.1713 180.829 25.001C172.091 21.5604 162.81 21.0197 153.579 20.2333C148.976 19.8401 144.373 19.324 139.893 18.1935C137.653 17.6283 135.438 16.9156 133.271 16.0308C131.204 15.1707 129.259 14.1385 127.093 13.5487C118.748 11.2877 109.936 12.9097 101.443 11.9267C81.6027 9.6657 61.4423 8.97758 41.8727 4.72596C37.2941 3.74293 32.8387 2.3421 28.2847 1.23619C23.977 0.179427 19.4476 -0.508698 15.0414 0.474336C7.97665 2.02261 2.19194 7.94539 0.493441 14.9004C-0.515809 18.9554 0.148819 23.1087 1.355 27.0408C1.97039 29.056 2.73349 31.0221 3.49658 33.0127C4.11197 34.5856 4.60428 36.2322 5.26891 37.7805C8.07512 44.4897 14.4752 48.176 20.5554 51.5429C23.9524 53.4353 27.3739 55.303 30.254 57.9326C33.2079 60.6114 35.6695 63.8554 37.3434 67.4926C39.1403 71.4002 39.8296 75.5044 39.8542 79.7806C39.8788 83.4424 39.6819 87.2762 40.8388 90.8151C41.0604 91.5033 41.3558 92.1914 41.725 92.8303C42.1681 93.6413 42.8081 94.2312 43.3496 94.9439C43.7435 95.4845 43.842 96.2464 44.0881 96.8608C44.3835 97.5489 44.7281 98.2124 45.122 98.8268C46.7466 101.358 49.1097 103.373 51.6698 104.946C55.9776 107.6 61.7623 109.861 66.8578 108.559C73.3564 106.937 79.7565 104.774 86.132 102.71C94.2306 100.105 102.305 97.7209 110.723 96.3447C115.745 95.5337 120.84 94.993 125.936 94.7718C131.056 94.5506 136.151 94.7473 141.271 94.9439C151.192 95.3125 161.038 94.5261 170.294 90.6185C174.7 88.7507 178.86 86.3423 182.995 83.9339C185.063 82.7297 187.131 81.5255 189.223 80.395C190.971 79.4611 192.399 78.4535 193.359 76.684C194.466 74.6688 195.279 72.4324 196.165 70.3189C197.002 68.2791 197.79 66.2393 198.479 64.1258C199.094 62.2088 199.611 60.2673 199.98 58.3013C200.374 56.2861 200.423 54.1971 200.842 52.1819C201.58 48.5938 201.359 44.7846 199.636 41.516C199.414 41.0736 198.774 41.4668 198.996 41.8846Z" transform="translate(414.761 214.623) rotate(118.72)" fill="#BEBEBE"/>
<path d="M262.616 46.4924C266.235 50.1542 268.106 55.1677 268.697 60.2058C269.312 65.4404 270.272 70.6259 270.149 75.9097C270.001 81.5622 268.844 87.1163 267.441 92.5967C267.023 94.1942 266.58 95.7916 266.136 97.389C265.693 98.9373 265.3 100.51 264.364 101.837C262.543 104.491 258.85 105.376 256.044 106.605C249.767 109.357 243.564 112.331 237.041 114.568C230.493 116.804 223.649 118.131 216.732 118.352C209.717 118.573 202.874 117.394 195.981 116.116C189.36 114.862 182.738 113.929 175.993 113.929C162.947 113.929 149.974 116.632 137.691 120.859C129.617 123.636 121.518 126.413 113.395 129.043C105.444 131.599 97.4686 134.228 89.3946 136.366C86.3669 137.153 83.1914 136.858 80.1391 136.268C76.2251 135.482 72.4097 134.13 68.8158 132.41C61.3325 128.822 53.8247 123.317 50.3046 115.575C49.8862 114.666 49.5416 113.732 49.2708 112.773C48.9508 111.692 48.8769 110.685 48.2615 109.751C46.7353 107.391 45.9969 104.614 45.5538 101.862C44.7168 96.4551 44.9384 90.9993 43.2645 85.7155C41.7383 80.8986 39.0552 76.4995 35.609 72.8132C32.1381 69.0776 28.0027 66.3006 23.6949 63.6464C19.5594 61.1151 15.3501 58.6083 11.8793 55.1923C10.0577 53.3983 8.4823 51.3585 7.27612 49.0975C5.9961 46.7136 5.23301 44.1086 4.34683 41.5527C2.22987 35.6053 0.21137 29.3385 0.900614 22.9488C1.46678 17.5667 3.95298 12.3812 7.69459 8.47361C11.6331 4.36945 16.7778 1.93644 22.3656 1.10086C28.7165 0.142405 35.1659 1.02714 41.4676 1.86272C67.1419 5.42621 92.8655 8.30159 118.22 13.8066C123.758 15.0108 129.223 15.3057 134.885 15.3057C140.522 15.3057 146.233 15.1337 151.796 16.1413C154.405 16.6328 156.99 17.3947 159.353 18.6234C161.814 19.926 164.03 21.6217 166.516 22.8751C171.119 25.1852 176.067 26.586 181.163 27.225C191.477 28.5029 201.889 26.9055 212.228 26.7335C224.536 26.5369 236.991 28.4046 247.699 34.7452C253.189 38.0138 258.112 42.0688 262.616 46.4924C262.961 46.8365 263.478 46.2958 263.133 45.9763C258.481 41.3807 253.361 37.2028 247.699 33.9096C242.333 30.7885 236.573 28.7487 230.493 27.5199C219.169 25.2343 207.772 26.242 196.326 26.8072C185.323 27.3479 174.418 26.6843 164.67 21.0564C162.282 19.6802 160.141 18.0336 157.556 17.0014C155.119 16.0184 152.559 15.4532 149.95 15.1091C144.239 14.3472 138.479 14.593 132.743 14.5439C129.838 14.5193 126.909 14.421 124.005 14.1015C120.755 13.7083 117.555 12.8973 114.355 12.2091C107.34 10.7346 100.324 9.4075 93.2593 8.27701C80.1391 6.18806 66.945 4.5169 53.7755 2.79659C48.0154 2.05932 42.2553 1.17459 36.4705 0.535622C30.3658 -0.152502 23.9903 -0.447415 18.0086 1.34662C7.96537 4.36945 0.62984 13.7083 0.0390591 24.153C-0.305563 30.3707 1.68832 36.3918 3.73144 42.1671C4.61761 44.6493 5.35609 47.1806 6.6115 49.4907C7.79306 51.6779 9.31924 53.6932 11.067 55.4626C14.4393 58.8787 18.5994 61.41 22.6857 63.9167C27.215 66.6692 31.5966 69.5446 35.1905 73.4767C39.0552 77.6792 41.8614 82.7418 43.166 88.296C44.4461 93.8009 43.9537 99.5763 45.4307 105.081C45.7261 106.212 46.1199 107.318 46.6123 108.374C47.2277 109.677 47.9415 110.709 48.2861 112.11C48.7538 114.051 49.5169 115.895 50.4769 117.64C52.4954 121.252 55.3755 124.324 58.6002 126.905C64.9511 132.016 72.8528 135.776 80.9268 137.128C83.856 137.62 86.8346 137.767 89.7392 136.981C93.407 135.998 97.0502 134.892 100.669 133.786C109.9 130.935 119.106 127.961 128.263 124.865C132.325 123.489 136.337 121.989 140.423 120.662C146.946 118.549 153.642 116.902 160.411 115.845C167.23 114.789 174.147 114.346 181.015 114.74C188.227 115.157 195.218 116.779 202.308 117.959C209.102 119.089 215.945 119.409 222.813 118.573C229.73 117.713 236.351 115.747 242.801 113.142C248.856 110.685 254.862 107.981 260.819 105.302C263.429 104.147 265.152 102.476 266.112 99.7729C267.244 96.6272 267.983 93.3094 268.77 90.0654C270.05 84.757 270.912 79.3749 270.863 73.9191C270.838 71.0929 270.592 68.2666 270.149 65.4896C269.78 63.1794 269.583 60.8693 269.189 58.5592C268.401 53.8652 266.481 49.3187 263.109 45.9026C262.813 45.6323 262.296 46.173 262.616 46.4924Z" transform="translate(437.644 202.753) rotate(118.72)" fill="#BEBEBE"/>
<path d="M326.184 52.0931C331.329 56.1481 334.603 61.9726 336.498 68.1657C337.212 70.5004 337.655 72.8843 338.369 75.219C339.477 78.8316 340.412 82.4689 341.028 86.2044C342.185 93.0856 342.16 100.016 341.274 106.922C340.782 110.879 340.043 114.811 339.255 118.743C338.394 122.97 337.877 127.713 333.766 130.072C330.345 132.038 326.135 133.046 322.443 134.398C318.357 135.897 314.295 137.396 310.16 138.772C301.642 141.574 292.953 143.638 283.968 144.08C274.959 144.523 266.269 143.097 257.605 140.664C249.481 138.379 241.506 135.897 233.063 135.086C216.398 133.513 199.536 137.003 183.88 142.557C173.911 146.096 163.991 149.684 153.947 153.002C142.796 156.688 131.621 160.276 120.396 163.618C116.654 164.724 112.74 166.272 108.826 166.543C104.396 166.838 99.9155 165.879 95.7062 164.601C84.7275 161.234 74.3642 154.943 66.1425 146.956C61.9825 142.901 58.2901 138.281 55.6562 133.095C52.2592 126.41 50.9546 118.792 49.5269 111.493C48.1237 104.366 46.4252 97.755 42.1175 91.7585C38.4251 86.6222 33.5758 82.518 28.3572 79.0037C23.2371 75.563 17.8709 72.3928 13.4892 67.9937C11.1754 65.659 9.18147 63.0048 7.6799 60.0803C5.98141 56.8117 4.94754 53.199 3.83983 49.7093C1.45209 42.2136 -0.271016 34.1773 1.40286 26.3622C2.83058 19.6776 6.52295 13.5336 11.7661 9.11C23.434 -0.695761 39.9021 0.336421 54.1546 1.31945C70.0319 2.40079 85.8352 4.58804 101.491 7.51257C110.353 9.15915 119.091 11.2972 127.805 13.7057C135.067 15.6963 142.107 18.0064 149.664 18.498C156.557 18.9403 163.498 18.5471 170.391 18.8175C177.062 19.0878 184.052 19.9234 189.813 23.536C192.766 25.3792 195.351 27.7385 198.354 29.5079C200.89 31.0071 203.573 32.2604 206.354 33.268C211.795 35.185 217.53 35.9468 223.29 35.9714C235.795 35.996 248.128 33.0469 260.559 32.0638C275.796 30.8596 291.082 32.5308 305.015 39.0434C312.572 42.5823 319.612 47.1534 326.209 52.216C326.578 52.5109 326.948 51.872 326.578 51.577C313.483 41.5255 298.91 33.907 282.393 31.7198C268.411 29.8766 254.602 31.8426 240.767 33.735C228.361 35.4307 215.512 36.5612 203.721 31.4249C200.619 30.0732 197.714 28.3775 194.957 26.4114C192.176 24.4207 189.714 22.3564 186.514 21.0293C180.483 18.498 173.788 18.1047 167.338 18.0064C160.2 17.8836 153.012 18.2768 145.923 17.4166C141.935 16.9251 138.144 15.8192 134.304 14.7379C129.898 13.5091 125.467 12.2803 121.036 11.1252C104.223 6.75071 86.9676 3.94907 69.7119 2.00758C62.6225 1.22115 55.5331 0.606757 48.4191 0.238119C40.8867 -0.155094 33.2558 -0.253396 25.871 1.49149C19.2247 3.06434 13.0215 6.25919 8.36915 11.3464C3.96291 16.1387 1.10747 22.2581 0.270532 28.7215C-0.738718 36.4383 1.23055 44.1306 3.61829 51.405C4.67677 54.6244 5.6614 57.893 7.28605 60.9159C8.78762 63.7175 10.7323 66.2734 12.9969 68.5344C17.3047 72.8843 22.5971 76.03 27.6434 79.4215C33.4281 83.2799 38.7943 87.8755 42.6098 93.7738C46.9668 100.532 48.0745 108.175 49.6745 115.892C51.1023 122.798 52.7269 129.704 56.3454 135.823C62.2779 145.924 71.8042 153.837 81.9951 159.465C86.7214 162.07 91.743 164.257 96.937 165.707C101.023 166.862 105.405 167.649 109.663 167.206C113.553 166.789 117.442 165.289 121.159 164.184C126.698 162.537 132.212 160.817 137.701 159.047C149.246 155.385 160.79 151.601 172.237 147.595C177.48 145.752 182.674 143.687 187.966 141.942C196.385 139.165 205.074 137.076 213.912 136.069C222.453 135.086 231.167 135.135 239.635 136.683C248.423 138.305 256.817 141.549 265.58 143.368C274.147 145.137 282.934 145.26 291.575 144.056C300.436 142.827 308.929 140.075 317.323 137.052C321.458 135.553 325.569 134.004 329.729 132.53C332.806 131.449 335.957 130.269 337.655 127.271C339.551 123.928 339.92 119.578 340.634 115.867C341.323 112.206 341.939 108.519 342.332 104.808C343.046 98.0008 342.825 91.1687 341.545 84.4349C340.806 80.5274 339.551 76.8164 338.591 72.958C338.049 70.7953 337.557 68.6327 336.843 66.5191C334.849 60.7438 331.649 55.3617 326.8 51.5279C326.357 51.2821 325.815 51.7982 326.184 52.0931Z" transform="translate(461.43 190.177) rotate(118.72)" fill="#BEBEBE"/>
<path d="M389.821 58.7191C396.664 63.3885 401.267 70.4418 404.295 78.0357C405.304 80.5425 406.067 83.1229 406.953 85.6542C408.578 90.2253 410.252 94.7227 411.483 99.4167C413.6 107.502 414.437 115.784 414.067 124.14C413.846 128.809 413.329 133.454 412.664 138.099C412.32 140.508 411.926 142.941 411.507 145.349C411.064 148.003 410.72 150.805 409.415 153.213C406.953 157.809 401.316 158.841 396.762 160.266C391.495 161.913 386.227 163.609 380.934 165.157C370.251 168.278 359.371 170.687 348.22 171.031C336.995 171.35 326.287 169.237 315.727 165.55C305.831 162.085 296.157 158.251 285.671 156.973C265.314 154.491 244.636 159.455 225.756 166.828C214.162 171.375 202.322 175.307 190.506 179.214C176.5 183.859 162.444 188.357 148.315 192.633C143.49 194.083 138.591 195.877 133.619 196.835C128.745 197.794 123.6 197.13 118.8 196.098C105.828 193.321 93.4459 187.079 82.8857 179.165C71.6608 170.736 61.5437 159.382 57.9744 145.521C55.5128 135.912 54.4051 125.639 50.5404 116.448C47.365 108.903 42.0233 102.71 35.6971 97.5981C29.8877 92.9287 23.3399 89.2423 17.7767 84.278C14.7244 81.5501 11.992 78.4781 9.85043 74.9883C7.46269 71.1054 6.01035 66.8537 4.65648 62.553C1.80104 53.4353 -0.414383 43.5067 1.33334 33.9467C2.88414 25.4189 7.46269 17.6037 14.1336 12.0496C27.9431 0.548106 47.4142 0.228619 64.4976 0.916743C84.1164 1.72775 103.883 4.75057 122.96 9.44456C133.471 12.0496 143.711 15.6377 154.001 19.0046C158.235 20.4054 162.395 21.6588 166.826 22.2732C170.813 22.8138 174.85 22.9858 178.863 23.0596C187.158 23.1825 195.503 22.7155 203.774 23.7231C207.91 24.2146 212.07 25.1239 215.885 26.8443C219.651 28.54 222.507 31.145 225.682 33.6763C231.27 38.1246 237.596 41.5652 244.513 43.4329C250.913 45.1533 257.56 45.4727 264.132 45.0304C279.123 43.9982 293.696 39.722 308.613 37.9771C326.656 35.8636 344.848 37.2644 361.882 43.8753C371.728 47.6846 381.033 52.8701 389.821 58.7191C390.215 58.9895 390.584 58.3505 390.19 58.0801C373.427 46.9227 354.94 38.5669 334.706 36.6992C317.795 35.1263 301.253 38.0508 284.711 41.1965C270.631 43.8753 255.812 46.5295 241.879 41.8355C238.138 40.5821 234.569 38.8373 231.245 36.7237C227.775 34.5119 224.87 31.7348 221.596 29.3018C215.393 24.657 207.59 23.1333 200.008 22.5926C191.368 21.9782 182.678 22.5681 174.014 22.1503C169.558 21.9291 165.103 21.4621 160.77 20.3562C155.822 19.0537 150.973 17.2351 146.124 15.6377C135.49 12.1233 124.831 8.95304 113.852 6.66749C103.809 4.57854 93.692 2.88281 83.5257 1.70317C74.8609 0.69556 66.1223 0.0811651 57.4082 0.00743755C48.4973 -0.06629 39.4633 0.376072 30.8477 2.7845C22.7984 5.04548 15.2167 9.1005 9.62889 15.3919C4.36109 21.2901 1.03795 28.7857 0.225629 36.65C-0.759005 46.0626 1.62873 55.5243 4.48417 64.4207C7.04422 72.3833 10.9581 79.2154 17.2598 84.8187C23.0445 89.9796 29.8877 93.7643 35.8694 98.6794C42.9341 104.504 48.4973 111.705 51.2789 120.503C54.2574 129.964 55.119 140.016 58.3929 149.379C60.6083 155.72 64.2022 161.52 68.4854 166.656C77.5686 177.543 89.7781 185.924 102.726 191.576C108.388 194.058 114.32 196.074 120.4 197.179C124.954 198.015 129.828 198.457 134.407 197.425C139.601 196.246 144.745 194.501 149.841 192.952C156.832 190.814 163.823 188.627 170.789 186.415C185.091 181.844 199.392 177.175 213.547 172.161C219.577 170.023 225.51 167.615 231.541 165.477C241.756 161.839 252.341 159.062 263.148 157.809C273.757 156.58 284.613 156.875 295.025 159.455C305.758 162.11 315.752 167.025 326.484 169.63C348.491 175.012 370.325 169.433 391.372 162.798C396.024 161.323 401.193 160.291 405.526 158.006C409.316 156.015 410.941 152.574 411.729 148.519C413.526 139.402 414.855 129.964 414.929 120.65C415.003 112.344 413.723 104.16 411.384 96.1973C410.08 91.7245 408.307 87.4237 406.88 83.0246C406.067 80.5425 405.181 78.0849 404.123 75.701C401.046 68.7461 396.541 62.4546 390.215 58.1047C389.796 57.8098 389.427 58.4488 389.821 58.7191Z" transform="translate(485.786 177.722) rotate(118.72)" fill="#BEBEBE"/>
<path d="M453.448 65.9312C461.768 71.1167 467.626 79.0793 471.762 87.8529C475.38 95.496 478.556 103.606 481.239 111.593C484.439 121.129 486.359 130.983 486.581 141.035C486.827 152.192 485.547 163.596 483.627 174.556C483.061 177.702 482.125 180.872 479.713 183.133C477.399 185.296 474.248 186.279 471.27 187.164C465.165 188.933 459.06 190.629 452.906 192.251C439.983 195.667 426.813 198.469 413.398 198.788C399.884 199.083 387.059 196.478 374.554 191.465C362.566 186.672 350.947 181.217 338.024 179.447C314.319 176.203 290.663 182.667 268.804 191.391C254.847 196.97 240.52 201.664 226.243 206.382C209.554 211.912 192.79 217.269 175.978 222.406C170.021 224.224 164.064 226.092 158.057 227.689C152.593 229.139 146.759 228.771 141.245 227.861C126.229 225.453 111.706 218.965 99.0285 210.732C85.3667 201.86 72.6896 189.941 66.0433 174.827C61.9078 165.39 61.0709 154.871 58.437 144.992C55.8277 135.112 51.7169 126.24 44.4552 118.892C37.9812 112.355 30.0549 107.71 22.9409 101.959C14.8669 95.4468 9.0822 87.3614 5.85752 77.4573C2.43592 66.9389 -0.222591 55.3882 0.95897 44.2799C2.06668 33.7615 7.2114 23.9803 14.99 16.8533C30.6949 2.47642 53.76 0.534926 74.0927 1.05102C85.1698 1.32135 96.2469 2.52557 107.176 4.29503C119.632 6.33482 132.112 8.89071 144.125 12.7C156.26 16.5338 167.928 22.0388 180.162 25.5531C189.246 28.1582 198.846 28.2073 208.2 28.1828C218.071 28.1582 228.213 27.765 237.887 30.0997C242.317 31.181 246.601 32.8767 250.342 35.5063C254.232 38.2343 257.481 41.8223 261.345 44.624C274.441 54.0857 289.728 56.4695 305.506 54.4789C322.861 52.2916 339.649 46.885 356.978 44.4274C378.419 41.4046 400.007 42.8545 420.487 50.0552C432.056 54.0365 443.01 59.5907 453.448 65.9312C453.866 66.177 454.235 65.538 453.817 65.2923C433.73 53.0781 411.625 44.1079 387.994 42.3876C368.08 40.9376 348.683 44.6731 329.359 49.0476C313.211 52.7094 296.029 56.9365 279.586 52.562C270.872 50.2273 263.044 45.5333 256.324 39.5859C252.853 36.514 249.604 33.6632 245.296 31.7462C241.185 29.9031 236.779 28.8709 232.348 28.2565C222.477 26.9048 212.483 27.4946 202.563 27.3717C197.32 27.298 192.027 27.0768 186.858 26.2413C181.639 25.4057 176.79 23.6608 171.842 21.8668C159.264 17.1973 146.808 12.1593 133.762 8.93986C121.601 5.94161 109.244 3.55776 96.8131 2.00948C76.6527 -0.497258 54.5477 -1.6769 34.9781 4.71282C25.3287 7.85853 16.3193 13.2161 9.86991 21.1541C3.83902 28.6005 0.269725 37.9394 0.0235665 47.5485C-0.271824 58.411 2.239 69.6176 5.90676 79.792C9.25451 89.1063 15.2116 96.6756 22.9163 102.82C30.2518 108.669 38.3997 113.461 44.8737 120.342C52.9477 128.919 56.517 139.511 59.1016 150.767C61.2432 160.106 62.4001 169.469 66.8064 178.12C70.4742 185.345 75.545 191.809 81.3051 197.51C92.85 208.913 107.226 217.638 122.389 223.389C133.515 227.616 147.029 231.499 158.919 228.181C173.738 224.052 188.384 219.383 203.031 214.689C220.163 209.208 237.271 203.605 254.207 197.584C260.878 195.2 267.426 192.62 274.023 190.088C286.281 185.394 299.032 181.733 312.103 180.135C324.977 178.587 338.122 179.128 350.578 182.912C363.083 186.697 374.603 193.21 387.256 196.576C413.521 203.581 440.204 196.65 465.608 189.499C470.457 188.122 476.39 187.213 480.23 183.65C484.168 179.988 484.488 174.114 485.177 169.125C486.654 158.508 487.836 147.744 487.171 137.029C486.556 126.978 484.144 117.221 480.697 107.784C477.965 100.264 475.011 92.4486 471.343 85.3216C467.232 77.3099 461.546 70.1583 453.841 65.3414C453.423 65.0465 453.054 65.6855 453.448 65.9312Z" transform="translate(510.55 165.333) rotate(118.72)" fill="#BEBEBE"/>
<path d="M517.126 73.0848C526.947 78.8356 534.086 87.8057 539.28 97.7835C543.858 106.606 547.895 116.019 551.391 125.308C555.453 136.122 558.185 147.328 558.923 158.879C559.711 171.29 558.48 183.75 556.929 196.062C556.536 199.306 556.216 202.673 555.034 205.745C553.385 209.972 550.012 212.43 545.852 213.954C539.428 216.313 532.461 217.615 525.84 219.237C510.726 222.924 495.341 226.094 479.734 226.487C463.734 226.905 448.447 223.931 433.776 217.542C420.41 211.717 407.585 204.787 393.086 202.206C365.861 197.365 338.439 205.033 313.38 215.256C297.281 221.818 280.666 227.274 264.173 232.754C244.382 239.34 224.517 245.681 204.578 251.8C197.292 254.037 190.03 256.224 182.695 258.288C176.738 259.984 170.756 260.132 164.602 259.468C147.494 257.6 130.706 250.768 115.912 242.191C99.4931 232.68 84.0097 219.778 74.6065 203.042C72.4156 199.134 70.5695 195.006 69.2156 190.729C67.5417 185.47 66.9509 180.014 65.9171 174.608C63.6278 162.516 60.2062 150.278 52.526 140.398C46.1013 132.141 37.3873 126.439 29.141 120.197C19.6639 113.021 12.0083 104.468 7.62673 93.2861C2.94971 81.4406 0.266586 67.629 0.758903 54.8741C1.25122 42.4142 6.74056 30.5686 15.553 21.795C32.9072 4.5182 59.0985 0.659798 82.5574 0.88098C95.3084 1.00386 108.035 2.42926 120.613 4.61651C135.186 7.17239 149.734 10.5639 163.617 15.6511C170.682 18.2315 177.624 21.156 184.565 23.9823C190.621 26.4644 196.726 29.1923 203.101 30.7406C214.08 33.3948 225.502 33.1245 236.726 33.0753C247.853 33.0262 259.422 32.8541 270.13 36.3439C275.447 38.0888 280.346 40.8659 284.383 44.7489C288.124 48.3369 291.964 51.7775 296.248 54.7021C311.066 64.7782 328.199 66.5231 345.553 63.7951C365.763 60.6249 385.209 53.8419 405.419 50.6471C429.912 46.7641 454.675 48.1157 478.356 55.6851C491.894 60.0105 504.793 66.0561 517.126 73.0848C517.544 73.3306 517.913 72.6916 517.495 72.4458C494.208 59.1749 468.706 49.6395 441.752 47.9683C418.441 46.5183 395.794 51.2123 373.32 56.8647C355.276 61.4113 336.027 66.99 317.343 63.0333C307.276 60.8952 298.143 55.9063 290.364 49.2708C286.303 45.8302 282.832 41.8489 278.204 39.121C273.823 36.5651 268.949 34.9677 263.976 33.9846C252.899 31.7974 241.477 32.3381 230.253 32.3381C217.871 32.3381 205.932 31.5271 194.289 27.0542C180.258 21.6476 166.596 15.2578 152.146 11.0554C138.091 6.95121 123.567 4.00211 109.069 2.0852C85.659 -0.962207 60.0339 -1.67491 37.6827 7.00037C16.1684 15.307 -0.668816 34.3041 0.0204276 58.241C0.389665 70.7255 2.75279 83.7753 7.65134 95.3014C12.0083 105.549 19.1962 113.512 27.9594 120.221C37.2396 127.324 47.1352 133.64 53.8553 143.47C61.5847 154.775 64.317 168.685 66.434 181.98C69.3387 200.363 80.7112 215.92 94.5207 227.913C108.552 240.102 125.364 249.367 142.989 255.241C156.011 259.566 170.239 262.614 183.729 258.755C201.501 253.693 219.126 248.114 236.726 242.486C256.641 236.121 276.506 229.584 296.198 222.53C303.977 219.729 311.633 216.657 319.337 213.659C333.27 208.203 347.793 203.951 362.686 202.255C377.775 200.535 393.086 201.666 407.437 206.827C421.739 211.963 434.859 220.097 449.629 224.005C479.833 231.968 511.144 223.931 540.535 216.313C545.508 215.01 551.096 213.536 554.197 209.063C557.643 204.049 557.643 196.947 558.308 191.123C559.686 178.933 560.597 166.62 559.317 154.382C558.086 142.536 554.665 131.133 550.16 120.123C546.689 111.693 543.071 102.92 538.615 94.9573C533.52 85.8642 526.627 77.8034 517.544 72.4704C517.076 72.2001 516.707 72.8391 517.126 73.0848Z" transform="translate(535.223 152.836) rotate(118.72)" fill="#BEBEBE"/>
<path d="M0.845429 68.4562C-0.0653581 53.7353 5.17782 39.2601 14.9011 28.201C28.0459 13.2589 47.4925 5.64037 66.7667 2.59296C98.595 -2.46966 131.777 3.15821 162.473 11.7106C181.452 16.9944 198.732 26.5053 217.12 33.3619C230.782 38.4491 245.798 38.1296 260.149 38.0559C274.795 37.9822 290.673 37.3923 304.236 43.7821C310.464 46.7066 314.845 51.376 319.818 55.9471C323.412 59.2403 327.252 62.2877 331.363 64.8927C345.861 74.1087 362.502 76.2959 379.314 74.0595C398.072 71.5773 416.14 65.3105 434.454 60.8869C457.076 55.4064 480.239 52.4819 503.501 54.8166C517.901 56.2666 532.08 59.6089 545.717 64.4012C553.644 67.1783 561.422 70.4714 569.004 74.1332C576.832 77.9179 584.709 81.7763 591.232 87.6254C600.635 96.0549 606.765 106.991 612.033 118.296C618.506 132.231 625.104 145.968 628.624 161.033C632.021 175.558 632.291 190.451 631.233 205.27C630.913 209.743 630.494 214.216 630.002 218.688C629.51 223.259 629.313 228.076 627.688 232.426C624.07 242.085 612.229 243.313 603.466 245.353C583.872 249.949 563.933 254.102 543.724 254.348C533.68 254.471 523.588 253.561 513.815 251.202C504.338 248.892 495.452 245.034 486.713 240.733C478.541 236.702 470.467 232.426 461.925 229.207C453.359 225.963 444.374 223.997 435.217 223.284C416.361 221.809 397.407 225.373 379.511 231.124C367.252 235.08 355.511 240.389 343.424 244.837C331.707 249.162 319.892 253.217 308.051 257.223C281.983 265.997 255.792 274.377 229.477 282.389C220.542 285.117 211.508 288.361 202.351 290.327C193.686 292.17 184.381 291.04 175.79 289.295C152.553 284.625 130.029 273.935 111.149 259.705C91.1118 244.616 74.8653 224.316 71.6406 198.856C70.1637 187.158 67.3821 175.337 61.5727 164.941C57.3881 157.47 51.6033 151.203 44.9817 145.821C38.8031 140.832 32.0829 136.507 26.1013 131.247C19.1596 125.177 13.5964 117.903 9.75637 109.522C3.89779 96.6693 1.80545 82.3907 0.845429 68.4562C0.820813 67.9893 0.082337 67.9893 0.106953 68.4562C1.70698 91.5821 6.95016 115.077 24.8705 131.1C30.926 136.531 37.7692 140.93 44.0955 145.993C51.1602 151.645 57.2157 158.281 61.4989 166.293C67.8006 178.089 69.3267 190.746 71.5668 203.697C73.5853 215.297 78.8038 226.11 85.7455 235.547C100.417 255.478 122.103 270.076 144.577 279.907C154.891 284.429 165.673 288.041 176.75 290.155C184.997 291.728 193.809 292.686 202.129 291.04C211.533 289.147 220.837 285.731 229.994 282.93C242.967 278.973 255.89 274.918 268.814 270.789C294.562 262.556 320.31 254.176 345.64 244.739C358.809 239.824 371.609 234.048 385.148 230.092C404.472 224.464 425.051 221.613 445.014 225.225C464.362 228.715 480.608 239.553 498.504 246.951C516.868 254.52 536.683 256.142 556.327 254.422C575.749 252.75 595.368 248.646 614.149 243.485C621.411 241.495 627.122 237.882 629.042 230.239C631.159 221.932 631.405 212.79 631.971 204.262C632.956 189.541 632.587 174.796 629.165 160.394C625.645 145.501 619.122 131.886 612.697 118.099C607.552 107.089 601.645 96.3989 592.684 87.994C586.654 82.3416 579.49 78.5077 572.13 74.8459C564.721 71.1596 557.139 67.8172 549.385 64.9419C523.883 55.4802 496.806 51.4743 469.679 53.981C448.312 55.9471 427.758 61.8207 407.106 67.3011C389.899 71.8723 371.609 76.4434 353.763 73.0765C344.778 71.3807 336.36 67.6206 328.901 62.3614C324.347 59.1665 320.236 55.4556 316.322 51.5235C311.694 46.8786 306.279 43.4626 300.1 41.2753C286.242 36.4093 270.98 37.2449 256.53 37.294C248.801 37.3186 241.047 37.2695 233.367 36.3356C224.751 35.2788 216.997 32.6246 209.022 29.2577C199.914 25.4239 190.954 21.2706 181.772 17.5842C172.369 13.7995 162.769 10.875 152.947 8.44201C136.134 4.28869 118.977 1.26587 101.672 0.307408C78.2131 -0.970536 53.1787 1.4379 32.403 13.2097C18.5688 21.0494 7.27017 33.2882 2.49469 48.5989C0.500807 54.9887 -0.311517 61.7224 0.106953 68.4316C0.156185 68.9231 0.89466 68.9477 0.845429 68.4562Z" transform="translate(559.896 140.265) rotate(118.72)" fill="#BEBEBE"/>
</g>
</svg>
