<svg width="153" height="302" viewBox="0 0 153 302" fill="none" xmlns="http://www.w3.org/2000/svg">
<g opacity="0.3">
<path d="M2.74392 23.1442C-0.223068 18.6737 0.6328 12.8078 3.57126 8.53656C6.93765 3.63886 12.8431 1.41781 18.5774 0.962212C23.8837 0.563562 30.3883 1.04764 34.8958 4.15141C39.6601 7.42604 39.2322 12.9217 38.2337 17.9618C37.4919 21.8059 36.1225 26.2765 37.7772 30.0921C38.6901 32.1993 40.4304 33.2813 42.1136 34.7051C43.3688 35.7587 44.1962 36.9831 44.0821 38.6916C43.9965 40.2577 43.2832 41.7953 42.4559 43.1337C37.7487 50.765 26.1375 53.1284 18.7485 48.0883C13.6419 44.6144 11.5022 38.3214 8.62084 33.1674C6.76647 29.7789 4.76946 26.4473 2.74392 23.1442C2.45863 22.6886 1.71689 23.1158 2.00218 23.5714C4.02772 26.8745 6.02472 30.206 7.90762 33.5661C10.7034 38.5777 12.786 44.4435 17.4362 48.1453C24.6255 53.8403 36.3508 52.1602 42.085 45.1269C43.6256 43.2476 45.0235 40.7133 44.9664 38.2075C44.8808 35.2746 42.4844 34.0786 40.516 32.3417C36.2652 28.6114 38.2051 22.5463 39.118 17.7909C40.031 13.0641 40.4589 7.82469 36.4934 4.32227C32.2711 0.592042 25.5384 -0.148309 20.1464 0.0225405C13.8416 0.19339 7.19441 2.24359 3.25744 7.45451C-0.194534 12.039 -1.33568 18.5882 1.97365 23.5714C2.28746 24.0554 3.02921 23.6283 2.74392 23.1442Z" transform="translate(139.041 80.6575) rotate(-18.5676)" fill="#BEBEBE"/>
<path d="M9.6719 8.75543C15.8056 3.62993 24.1074 1.18109 32.0099 0.867864C40.2832 0.526164 48.9845 2.86111 54.8329 8.98324C56.2023 10.4355 57.3719 12.087 58.941 13.3399C60.6242 14.6782 62.5356 15.5325 64.1047 17.0417C66.872 19.7183 68.5267 23.2492 69.6393 26.8655C72.0357 34.6962 72.2354 43.1532 75.6874 50.6706C76.5718 52.6354 77.6844 54.5148 78.1694 56.6504C78.7114 59.0708 78.255 61.5196 77.1994 63.7407C75.4877 67.3855 72.5492 70.3753 69.2684 72.6533C63.0777 76.953 55.4891 79.1741 48.1857 80.7402C43.564 81.7084 38.7712 82.107 34.2066 80.6548C29.8702 79.2595 26.3042 76.1558 23.1375 72.9666C20.0849 69.8628 17.2605 66.5312 16.1194 62.2599C15.0068 58.1311 14.8641 53.7744 13.0098 49.8449C11.4692 46.5702 9.18692 43.7227 6.84756 40.9891C4.82202 38.5972 2.91059 36.3192 1.85503 33.3294C-0.56991 26.4099 1.68386 18.5508 5.93464 12.8274C7.01873 11.2897 8.27399 9.97986 9.6719 8.75543C10.0998 8.38526 9.4722 7.78728 9.0728 8.15746C3.56675 12.9128 -0.0563932 20.1454 0.000664299 27.492C0.029193 30.9659 1.0277 34.2406 2.79648 37.2304C4.5082 40.1064 7.10432 42.4414 9.10133 45.118C10.3566 46.798 11.4692 48.5635 12.3536 50.4713C13.4377 52.8347 13.9227 55.369 14.3506 57.9033C15.1209 62.3169 16.2335 66.1041 19.0293 69.6919C21.7396 73.1374 25.0774 76.4405 28.7576 78.8894C32.5805 81.4521 36.9739 82.5911 41.567 82.4487C45.9605 82.3064 50.3253 81.1958 54.5476 79.9999C58.3134 78.9463 62.0221 77.6365 65.5312 75.8425C68.9261 74.1056 72.1498 71.856 74.6603 68.9516C77.285 65.9617 79.5388 62.0322 79.1679 57.9318C78.9682 55.91 78.1694 54.0307 77.3135 52.2083C76.2294 49.9303 75.2595 47.6808 74.5748 45.2319C73.3195 40.8468 72.6919 36.3192 71.7504 31.8771C70.9231 28.033 69.896 24.1035 67.9276 20.658C67.0432 19.1203 65.9591 17.6681 64.6753 16.4437C63.0777 14.906 61.1092 14.0233 59.3975 12.6565C57.5146 11.1473 56.2023 9.09713 54.4335 7.47406C52.9785 6.10726 51.3239 4.93979 49.6121 3.97164C46.0175 1.94991 41.9664 0.697011 37.8868 0.241411C29.642 -0.669789 20.7696 1.01024 13.5233 5.08216C11.9542 5.96488 10.4422 7.01846 9.04428 8.18593C8.64487 8.49916 9.24397 9.12561 9.6719 8.75543Z" transform="translate(119.328 73.6514) rotate(-18.5676)" fill="#BEBEBE"/>
<path d="M12.406 12.7907C20.7078 5.27326 32.7184 1.14439 43.8161 0.859641C55.3987 0.546417 67.2952 5.27326 74.8268 14.2144C76.6241 16.3785 78.1647 18.7989 80.4184 20.5359C82.6437 22.2728 85.468 22.9847 87.9215 24.323C92.5432 26.8573 96.366 30.5591 99.3615 34.8588C106.094 44.6257 108.605 56.3859 111.458 67.6905C112.314 71.0505 113.226 74.439 113.226 77.9414C113.226 81.273 112.314 84.4337 110.687 87.3382C107.92 92.3498 103.498 96.2793 98.6768 99.2692C94.0552 102.117 89.0056 104.195 83.9275 106.075C78.5355 108.068 73.1151 110.004 67.6946 111.969C61.5895 114.162 55.0279 115.984 48.5804 114.19C42.6179 112.539 37.5968 108.495 33.0037 104.509C28.4391 100.551 23.9316 96.1085 22.3625 90.1003C20.7934 84.1205 21.7348 77.7991 19.8519 71.8763C18.3114 66.9501 15.0021 62.8782 11.5501 59.148C8.44046 55.7594 5.15966 52.6272 3.13412 48.4414C-1.51606 38.8453 1.42239 27.1705 7.24225 18.7704C8.75428 16.5494 10.466 14.5846 12.406 12.7907C12.8054 12.4205 12.2063 11.8225 11.8069 12.1927C4.16115 19.283 -0.91696 30.1035 0.138603 40.6392C0.595063 45.2237 2.30678 49.6658 5.18818 53.3106C8.44046 57.4395 12.463 60.8565 15.4871 65.1562C17.2844 67.6905 18.7108 70.481 19.4525 73.5278C20.2799 76.9163 20.3369 80.4188 20.6222 83.8643C20.8505 86.968 21.2499 90.1003 22.4766 92.9762C23.5322 95.5105 25.1298 97.76 26.9556 99.8102C30.9211 104.281 35.8851 108.438 40.9632 111.599C46.3266 114.93 52.175 116.354 58.4513 115.386C64.9559 114.361 71.0895 111.513 77.2517 109.321C82.444 107.47 87.6647 105.705 92.6858 103.37C102.699 98.7567 113.74 90.5274 114.054 78.4255C114.139 75.037 113.369 71.7339 112.542 68.4877C111.686 65.0707 110.859 61.6253 109.974 58.2083C108.462 52.4563 106.665 46.7613 104.097 41.408C101.815 36.6242 98.848 32.0682 94.9681 28.395C93.0852 26.6295 90.9741 25.0634 88.7203 23.782C85.953 22.2159 82.6722 21.4471 80.2758 19.3114C78.022 17.2897 76.4529 14.6415 74.3989 12.449C72.4874 10.3988 70.3478 8.57637 68.037 7.01024C63.13 3.70714 57.4813 1.48609 51.633 0.546419C40.1359 -1.33293 27.6974 1.77085 17.7979 7.77907C15.6582 9.08892 13.6327 10.5411 11.7783 12.2212C11.3789 12.5629 11.978 13.1608 12.406 12.7907Z" transform="translate(99.5049 66.4106) rotate(-18.5676)" fill="#BEBEBE"/>
<path d="M15.1231 16.857C20.2012 12.0448 26.449 8.42845 32.925 5.7518C40.0286 2.7904 47.7314 0.882572 55.4627 0.825622C70.4117 0.683247 85.5605 7.74505 94.8324 19.4483C97.1146 22.3242 99.0546 25.5704 102.022 27.8484C104.932 30.0979 108.583 30.8098 111.921 32.1481C118.311 34.7109 124.017 38.7258 128.782 43.652C139.423 54.6718 144.843 69.3934 147.411 84.2574C148.951 93.1131 149.265 102.026 144.729 110.141C141.02 116.747 135.115 121.787 128.61 125.575C122.363 129.219 115.573 131.839 108.811 134.43C101.965 137.05 95.2603 139.841 88.6416 143.03C81.1671 146.618 73.0934 150.063 64.6204 148.383C56.6894 146.788 49.9281 141.72 43.7374 136.794C37.889 132.124 31.6983 126.884 29.1021 119.595C26.3349 111.821 28.1036 103.336 26.7343 95.3341C25.5646 88.5001 21.6562 82.919 17.0345 77.9359C12.8408 73.4369 7.84824 69.3365 4.76714 63.9262C-2.25093 51.5111 0.944289 36.1916 8.5044 24.7731C10.4158 21.8971 12.6411 19.2489 15.1231 16.857C15.5225 16.4869 14.9234 15.8604 14.524 16.2591C4.76714 25.7128 -1.65182 40.0072 0.373719 53.7037C1.31517 60.1106 4.28216 65.6632 8.58999 70.4185C13.1546 75.4586 18.4609 79.9292 22.1126 85.7381C24.3664 89.3259 25.7072 93.2554 26.1922 97.4697C26.6772 101.741 26.4775 106.012 26.6772 110.283C26.8484 114.156 27.3904 118.057 29.0166 121.617C30.5856 125.062 32.9535 128.109 35.6067 130.785C38.3455 133.548 41.398 135.996 44.4506 138.417C47.6458 140.923 50.9552 143.371 54.5212 145.365C57.9447 147.273 61.682 148.81 65.5904 149.408C69.5274 150.006 73.4929 149.579 77.3157 148.525C85.2467 146.333 92.3789 141.919 99.939 138.815C106.786 135.996 113.804 133.605 120.594 130.615C134.345 124.493 147.867 114.441 149.294 98.267C149.693 93.8534 149.18 89.4398 148.438 85.0831C147.696 80.5556 146.726 76.0566 145.414 71.6714C143.303 64.5527 140.25 57.6617 136.142 51.4826C132.376 45.8161 127.669 40.7476 122.106 36.7895C119.281 34.7678 116.229 33.0593 113.034 31.6925C109.325 30.1264 105.16 29.386 102.022 26.7379C98.9975 24.1751 97.0005 20.6157 94.4615 17.6259C92.065 14.8068 89.3548 12.301 86.3878 10.1369C80.2827 5.60942 73.122 2.47717 65.676 0.967997C50.6984 -2.07883 34.6938 2.3348 21.9985 10.4502C19.3453 12.1587 16.8348 14.038 14.5525 16.2306C14.1246 16.6292 14.7237 17.2272 15.1231 16.857Z" transform="translate(79.689 59.135) rotate(-18.5676)" fill="#BEBEBE"/>
<path d="M17.8636 20.8031C23.8831 14.8803 31.3576 10.4382 39.0604 7.04966C47.7617 3.20554 57.3188 0.64279 66.8759 0.69974C85.2199 0.785165 103.621 10.0111 114.747 24.5333C117.4 28.0073 119.683 31.9083 123.106 34.6989C126.815 37.7172 131.493 38.5715 135.915 40.0237C144.103 42.7288 151.692 47.0855 158.225 52.6951C172.775 65.1671 181.276 83.0209 183.644 101.871C184.985 112.521 184.243 123.398 178.823 132.881C174.144 141.081 166.755 147.204 158.624 151.788C150.779 156.202 142.306 159.334 133.947 162.609C129.896 164.203 125.845 165.826 121.879 167.649C117.629 169.585 113.549 171.863 109.469 174.169C100.911 178.982 91.6959 183.822 81.5397 182.57C71.3834 181.317 62.5681 174.995 54.6371 168.987C47.2481 163.406 39.3742 157.227 35.7796 148.4C31.8712 138.832 34.3532 128.239 33.2976 118.245C32.8411 113.916 31.6429 109.759 29.5318 105.943C27.6204 102.469 25.1099 99.3656 22.4282 96.4896C17.0933 90.7092 10.7028 85.6976 6.42354 79.0344C-3.19064 64.1705 0.831911 44.7221 9.87552 30.6554C12.1863 27.1245 14.868 23.793 17.8636 20.8031C18.263 20.4044 17.6353 19.8065 17.2645 20.2051C5.36798 32.0792 -2.53448 50.1039 0.746325 67.0465C2.31541 75.0764 6.59471 81.5972 12.2149 87.4061C18.0633 93.4428 24.7105 98.9669 28.8186 106.427C34.0394 115.881 32.2991 126.417 32.727 136.725C32.9267 141.537 33.697 146.264 35.8652 150.621C37.8907 154.721 40.8862 158.309 44.1956 161.47C47.5905 164.716 51.2992 167.563 55.0365 170.382C59.2302 173.543 63.5095 176.59 68.1597 179.01C72.439 181.26 77.0321 182.968 81.8535 183.509C86.6749 184.05 91.5533 183.253 96.1179 181.658C105.39 178.412 113.463 172.518 122.364 168.446C130.809 164.573 139.596 161.583 148.126 157.939C156.371 154.408 164.473 150.165 171.091 144.043C178.452 137.209 183.33 128.268 184.7 118.301C186.183 107.652 184.357 96.2049 181.105 86.0108C178.338 77.3544 174.03 69.2106 168.381 62.0918C163.046 55.3148 156.456 49.5059 149.01 45.0923C145.273 42.8712 141.279 41.0488 137.171 39.5966C132.292 37.8881 127.014 37.1193 123.049 33.5599C119.454 30.3422 117.086 26.014 114.062 22.3407C111.21 18.8953 107.986 15.82 104.448 13.0864C97.1449 7.47679 88.5863 3.46181 79.5997 1.41162C61.1416 -2.80268 41.7992 2.80689 26.251 13.0864C23.0558 15.1935 20.0032 17.5569 17.2645 20.2621C16.8651 20.5753 17.4642 21.2017 17.8636 20.8031Z" transform="translate(59.8892 51.9808) rotate(-18.5676)" fill="#BEBEBE"/>
<path d="M20.6205 24.9975C27.5815 17.9642 36.3683 12.6109 45.3264 8.5105C55.5396 3.8406 66.8085 0.622926 78.1059 0.793776C99.9589 1.107 121.726 12.4685 134.764 29.8952C137.959 34.1949 140.726 38.9787 145.006 42.3388C149.456 45.8412 155.076 46.6955 160.354 48.2616C170.311 51.166 179.668 55.9498 187.913 62.2143C196.186 68.5073 203.261 76.3664 208.653 85.2506C214.958 95.6155 218.667 107.29 219.837 119.364C221.063 132.007 219.352 145.02 212.847 156.096C207.141 165.806 198.354 172.982 188.569 178.335C179.126 183.518 168.941 187.134 158.956 191.121C154.078 193.057 149.228 195.107 144.521 197.414C139.471 199.919 134.707 202.881 129.914 205.842C120.3 211.822 109.944 217.887 98.1616 216.947C85.9227 215.979 75.2245 208.519 65.6388 201.514C56.9376 195.136 47.6372 188.273 42.8444 178.307C37.481 167.173 40.2482 154.616 39.7633 142.77C39.535 137.331 38.5651 131.978 36.1972 127.08C34.1716 122.866 31.3188 119.136 28.1806 115.662C21.7902 108.6 14.0589 102.677 8.46725 94.9036C-4.05686 77.4769 0.422147 53.9851 11.1489 36.8716C13.9162 32.6288 17.0829 28.6138 20.6205 24.9975C20.9914 24.5989 20.3923 24.0009 20.0214 24.3995C5.89966 38.8364 -3.6004 60.9045 1.30654 81.1787C2.47622 85.9625 4.47323 90.5469 7.24051 94.6189C9.86516 98.463 13.0889 101.852 16.3982 105.098C23.4163 112.017 31.2617 118.652 35.5695 127.707C41.0471 139.182 38.1371 151.939 38.7362 164.098C39.0215 169.764 40.1912 175.289 42.9299 180.3C45.5261 185.027 49.1777 189.099 53.1718 192.715C57.2799 196.445 61.7589 199.72 66.2379 202.995C71.259 206.639 76.4227 210.17 81.9858 212.932C87.1495 215.495 92.684 217.403 98.4754 217.83C104.181 218.257 109.83 217.033 115.108 214.897C125.806 210.541 134.907 203.137 145.205 198.068C155.133 193.171 165.632 189.611 175.788 185.34C185.659 181.183 195.416 176.285 203.404 169.024C212.334 160.909 218.153 150.117 220.179 138.243C222.319 125.685 220.75 112.33 216.698 100.342C213.246 90.1483 207.598 80.7231 200.466 72.6646C193.562 64.891 185.203 58.3987 175.959 53.5864C171.423 51.223 166.688 49.2867 161.809 47.7775C155.847 45.9266 149.399 45.1293 144.549 40.8296C140.327 37.0709 137.56 31.9739 134.079 27.5887C130.57 23.2036 126.548 19.274 122.126 15.8286C113.596 9.1939 103.668 4.38163 93.1405 1.87583C82.2711 -0.743873 71.259 -0.601498 60.4181 2.18905C49.6913 4.95112 39.3639 9.73492 30.2347 15.9709C26.583 18.4767 23.1025 21.2388 19.9643 24.3711C19.622 24.7697 20.2211 25.3962 20.6205 24.9975Z" transform="translate(39.9946 44.5965) rotate(-18.5676)" fill="#BEBEBE"/>
<path d="M23.3673 29.1021C31.2698 20.9867 41.2263 14.7792 51.4111 9.96692C62.9652 4.49972 75.7746 0.655593 88.6696 0.797968C113.946 1.11119 138.966 14.2666 154.143 34.313C157.937 39.3246 161.047 45.0196 165.897 49.12C171.004 53.4482 177.48 54.5588 183.784 56.1818C195.51 59.1717 206.693 64.2118 216.678 71.0458C226.692 77.8798 235.507 86.5646 242.24 96.6733C250.085 108.433 254.821 121.902 256.048 135.969C257.303 150.519 254.849 165.526 247.518 178.283C240.927 189.758 230.743 198.215 219.217 204.48C208.205 210.459 196.366 214.617 184.754 219.315C179.049 221.622 173.343 224.07 167.865 226.889C162.074 229.879 156.682 233.439 151.262 237.055C140.449 244.288 128.867 251.862 115.315 251.349C101.108 250.808 88.4984 242.437 77.3152 234.464C67.1304 227.231 56.1754 219.514 50.0988 208.267C43.2233 195.538 46.1333 181.073 46.1333 167.291C46.1333 160.913 45.4486 154.478 42.938 148.526C40.8554 143.6 37.7458 139.186 34.2368 135.171C26.8764 126.743 17.7757 119.937 10.9003 111.082C-4.6764 91.0637 -0.0547505 63.6423 12.4123 43.3111C15.579 38.1856 19.2307 33.4303 23.3673 29.1021C23.7382 28.7035 23.1391 28.1055 22.7682 28.5041C6.4498 45.5607 -4.6764 71.6722 1.94226 95.278C3.48281 100.774 6.02187 105.928 9.41679 110.512C12.7546 115.011 16.7201 118.969 20.7427 122.842C28.9875 130.758 38.1737 138.674 42.4816 149.58C47.845 163.134 43.8224 177.884 44.7924 191.951C45.2489 198.414 46.9035 204.622 50.2414 210.203C53.4937 215.67 57.9727 220.312 62.7655 224.441C67.6154 228.626 72.8647 232.357 78.0854 236.058C83.9338 240.187 89.9819 244.174 96.4865 247.221C102.535 250.068 109.068 252.061 115.8 252.232C122.191 252.403 128.41 250.78 134.201 248.16C146.412 242.665 156.625 233.638 168.493 227.544C180.076 221.593 192.429 217.407 204.411 212.396C215.851 207.612 227.177 201.974 236.391 193.517C246.719 184.035 253.366 171.306 255.905 157.61C258.615 142.945 257.075 127.341 251.797 113.388C247.432 101.799 240.357 91.263 231.656 82.4642C223.126 73.8363 212.969 66.86 201.929 61.7914C196.423 59.2571 190.688 57.1785 184.811 55.6408C177.936 53.8184 170.861 52.7364 165.469 47.6963C160.619 43.1403 157.424 37.1036 153.287 31.9496C149.322 27.0234 144.814 22.5813 139.85 18.6803C129.979 10.9066 118.425 5.24007 106.186 2.30714C100.11 0.854918 93.8048 -0.0278063 87.557 0.000668692C81.1665 0.0291437 74.7761 1.08272 68.6139 2.73427C56.3465 6.03737 44.5927 11.7039 34.2083 18.965C30.1286 21.8125 26.2202 24.9732 22.7397 28.5326C22.3688 28.8743 22.9965 29.5008 23.3673 29.1021Z" transform="translate(20.1377 37.2941) rotate(-18.5676)" fill="#BEBEBE"/>
<path d="M101.893 0.937087C131.734 2.61711 159.578 18.6485 176.496 43.137C180.604 49.0883 184.712 55.5521 191.188 59.1969C197.921 62.9841 205.966 63.696 213.298 65.7746C226.935 69.6472 239.944 75.8263 251.441 84.141C263.023 92.4842 273.094 103.048 280.34 115.378C287.415 127.366 291.495 140.892 292.294 154.787C293.064 168.569 290.668 182.636 284.791 195.193C278.8 208.007 269.271 218.372 257.432 226.06C245.193 234.005 231.442 239.159 217.919 244.484C204.226 249.865 190.846 255.617 178.635 263.932C166.539 272.19 154.557 282.384 139.694 285.032C123.004 288.022 107.285 279.679 93.848 270.738C87.4291 266.466 81.0386 261.996 74.9905 257.212C69.2562 252.656 63.7502 247.644 59.528 241.636C55.0204 235.258 52.4243 228.025 51.6826 220.251C50.8838 212.079 51.7681 203.85 52.1961 195.706C52.5955 187.932 52.5955 179.959 50.3417 172.413C48.5444 166.434 45.3206 161.023 41.4122 156.154C33.253 145.96 22.5547 138.158 14.1102 128.22C9.68827 123.009 6.09365 117.257 3.86841 110.794C1.58611 104.244 0.67319 97.2965 0.844363 90.377C1.21524 76.0256 6.15071 61.9305 13.5111 49.6863C17.2199 43.5357 21.6133 37.7268 26.6343 32.6013C30.9136 28.2446 35.7065 24.4859 40.699 21.0689C52.7381 12.8681 66.2893 6.46124 80.4966 3.10119C87.5146 1.42116 94.7039 0.566912 101.893 0.937087C102.435 0.965562 102.435 0.111312 101.893 0.0828374C87.0011 -0.657512 72.1376 3.64221 58.7291 9.87823C46.8327 15.3739 35.1359 22.6635 25.9496 32.0887C15.9931 42.3113 8.31889 55.0396 3.89694 68.5937C-0.410901 81.8345 -1.60911 96.4137 2.6702 109.797C6.8354 122.782 16.2499 132.292 25.9496 141.433C35.6779 150.602 46.148 160.226 49.7997 173.552C54.1931 189.584 48.9153 206.27 51.112 222.501C52.139 230.047 55.0489 236.995 59.585 243.088C63.9784 249.011 69.513 253.966 75.3043 258.493C81.4095 263.277 87.7999 267.748 94.2759 272.019C101.123 276.518 108.284 280.704 116.043 283.466C123.347 286.057 131.135 287.196 138.838 286.029C146.17 284.918 153.017 281.814 159.35 278.056C165.997 274.098 172.159 269.428 178.521 265.071C184.741 260.8 191.245 257.013 198.092 253.767C211.615 247.36 225.879 242.69 239.544 236.568C252.753 230.645 265.562 223.156 275.034 212.051C283.906 201.657 289.527 188.787 291.923 175.375C294.348 161.878 293.578 147.811 289.698 134.627C285.732 121.159 278.343 108.829 268.9 98.4639C259.286 87.9282 247.532 79.3857 234.751 73.0927C228.332 69.932 221.657 67.3123 214.781 65.2906C211.073 64.2085 207.307 63.3543 203.541 62.5C199.376 61.5603 195.154 60.4783 191.416 58.3142C184.484 54.3277 180.433 47.152 175.954 40.8305C171.703 34.8508 166.739 29.3551 161.204 24.5144C150.192 14.8898 137.041 7.68566 122.947 3.64221C116.1 1.67744 109.025 0.481487 101.893 0.0828374C101.351 0.0543624 101.351 0.908612 101.893 0.937087Z" transform="translate(0.367676 29.9106) rotate(-18.5676)" fill="#BEBEBE"/>
</g>
</svg>
