<svg width="21" height="26" viewBox="0 0 21 26" fill="none" xmlns="http://www.w3.org/2000/svg">
<path d="M20.5743 3.35027L10.9257 0.0471869C10.8311 0 10.6419 0 10.5 0C10.3581 0 10.1689 0 10.0743 0.0471869L0.425676 3.35027C0.189189 3.39746 0 3.68058 0 3.91652V11.7967C0 15.4773 1.65541 18.922 4.44595 21.2341L10.1216 25.9056C10.2162 26 10.3581 26 10.5 26C10.6419 26 10.7838 25.9528 10.8784 25.9056L16.5541 21.2341C19.3919 18.922 21 15.4301 21 11.7967V3.91652C21 3.68058 20.8108 3.39746 20.5743 3.35027ZM14.9932 20.1016L10.5 23.5935L6.00676 20.1016C3.5 18.167 2.03378 15.1942 2.03378 12.0327V4.95463L10.5 2.07623L18.9662 4.95463V12.0799C18.9662 15.1942 17.5 18.167 14.9932 20.1016ZM7.42568 11.3721C7.33108 11.2777 7.18919 11.1833 7.0473 11.1833H5.48649C5.2973 11.1833 5.2027 11.3721 5.2973 11.5608L8.89189 16.4682C9.08108 16.7042 9.45946 16.7042 9.64865 16.4682L15.7027 8.16334C15.7973 8.02178 15.7027 7.78584 15.5135 7.78584H13.9527C13.8108 7.78584 13.6689 7.83303 13.5743 7.97459L9.27027 13.873L7.42568 11.3721Z" fill="#666666"/>
</svg>
