<svg width="18" height="30" viewBox="0 0 18 30" fill="none" xmlns="http://www.w3.org/2000/svg">
<path d="M1.33504 2.72727C2.07161 2.72727 2.67008 2.11599 2.67008 1.36364C2.67008 0.611286 2.07161 0 1.33504 0C0.598465 0 0 0.611286 0 1.36364C0 2.11599 0.598465 2.72727 1.33504 2.72727Z" transform="translate(7.64209 9.0752)" fill="#666666"/>
<path d="M1.88747 0H0.276214C0.138107 0 0 0.141066 0 0.282132V6.6301C0 6.77116 0.138107 6.91223 0.276214 6.91223H1.88747C2.02557 6.91223 2.16368 6.77116 2.16368 6.6301V0.282132C2.16368 0.141066 2.02557 0 1.88747 0Z" transform="translate(7.91797 14.0126)" fill="#666666"/>
<path d="M17.0332 0H0.966752C0.414322 0 0 0.423197 0 0.987461V29.0125C0 29.5298 0.414322 30 0.966752 30H17.0332C17.5396 30 18 29.5768 18 29.0125V0.987461C17.954 0.423197 17.5396 0 17.0332 0ZM2.16368 7.42947H15.8363V22.7586H2.16368V7.42947ZM15.8363 2.21003V5.17241H2.16368V2.21003H15.8363ZM2.16368 27.79V24.9687H15.8363V27.79H2.16368Z" fill="#666666"/>
</svg>
