<svg width="29" height="29" viewBox="0 0 29 29" fill="none" xmlns="http://www.w3.org/2000/svg">
<path d="M15.7488 29H13.3383C11.4797 29 9.9695 27.55 9.9695 25.781V24.186C9.94046 23.722 9.67908 23.316 9.30154 23.113C8.83687 22.823 8.25604 22.823 7.76233 23.084L7.70425 23.113L6.31024 23.78C4.71295 24.708 2.70907 24.215 1.7507 22.678L0.530948 20.764C0.0662809 20.097 -0.107969 19.256 0.066281 18.473C0.298615 17.603 0.90849 16.82 1.72166 16.385L3.20278 15.573C3.78362 15.283 4.01595 14.558 3.72553 13.949C3.60937 13.717 3.43512 13.543 3.20278 13.427H3.17374L1.69262 12.586C0.182448 11.658 -0.340303 9.715 0.501906 8.178L0.530948 8.12L1.7507 6.206C2.70907 4.698 4.68391 4.205 6.25216 5.075L7.73329 5.771C8.19795 6.032 8.80783 6.032 9.2725 5.742C9.67908 5.539 9.94046 5.133 9.94046 4.669V3.19C9.94046 1.45 11.4506 0 13.3093 0H15.7198C17.5784 0 19.0886 1.45 19.0886 3.219V4.785C19.1176 5.249 19.379 5.655 19.7565 5.858C20.2212 6.148 20.802 6.148 21.2958 5.887L22.7478 5.104C24.3161 4.205 26.32 4.669 27.2783 6.206L28.4691 8.12C28.9337 8.787 29.108 9.628 28.9337 10.411C28.7014 11.31 28.1206 12.093 27.3074 12.528L25.8553 13.311C25.2164 13.659 24.984 14.442 25.3326 15.08C25.4487 15.312 25.652 15.486 25.8843 15.631L27.3655 16.443C28.8756 17.371 29.3693 19.285 28.5562 20.938L28.4981 21.025L27.3074 22.91C26.4071 24.418 24.3742 24.911 22.7769 24.012L21.3248 23.229C20.8601 22.939 20.2503 22.939 19.7856 23.229C19.379 23.432 19.1176 23.838 19.1176 24.302V25.781C19.1176 27.55 17.6075 29 15.7488 29ZM8.48837 21.025C9.09825 21.025 9.70812 21.199 10.2309 21.489C11.2183 22.04 11.8572 23.084 11.8572 24.215V25.781C11.9153 26.535 12.5542 27.144 13.3383 27.086H15.7488C16.5039 27.115 17.1718 26.535 17.2299 25.781V24.302C17.2299 23.171 17.8688 22.127 18.8563 21.576C19.9018 20.967 21.2086 20.938 22.2832 21.547L23.7062 22.33C24.3742 22.736 25.2745 22.533 25.7101 21.895L26.9008 20.01C27.2493 19.227 27.0751 18.444 26.4071 18.009L24.9841 17.255C23.4448 16.414 22.835 14.5 23.6772 12.934C23.9676 12.383 24.4032 11.948 24.955 11.658L26.4361 10.846C26.7846 10.672 27.046 10.353 27.1331 9.976C27.1912 9.686 27.1331 9.396 26.9589 9.164L26.9298 9.106L25.7101 7.192C25.3035 6.525 24.4323 6.293 23.7353 6.699L23.6772 6.728L22.2251 7.511C21.1505 8.091 19.8727 8.091 18.8272 7.482C17.8398 6.931 17.2009 5.887 17.2009 4.756V3.19C17.1428 2.436 16.5039 1.827 15.7198 1.885H13.2803C12.5252 1.856 11.8572 2.436 11.7991 3.19V4.669C11.7991 5.8 11.1602 6.844 10.1728 7.395C9.12729 8.004 7.84945 8.033 6.77491 7.453L5.29379 6.757C4.62583 6.351 3.75458 6.554 3.28991 7.192L2.0992 9.106C1.7507 9.773 1.95399 10.585 2.59291 10.991L4.01595 11.745C5.52612 12.528 6.13599 14.413 5.35187 15.921C5.06145 16.501 4.59678 16.965 4.01595 17.255L2.56387 18.038C2.21537 18.212 1.95399 18.531 1.86687 18.908C1.80878 19.198 1.86687 19.488 2.04112 19.72L2.07016 19.778L3.28991 21.692C3.69649 22.359 4.56774 22.591 5.26474 22.185L5.35187 22.127L6.77491 21.46C7.3267 21.17 7.90754 21.025 8.48837 21.025ZM14.529 20.01C11.4797 20.01 9.01112 17.545 9.01112 14.5C9.01112 11.455 11.4797 8.99 14.529 8.99C17.5784 8.99 20.047 11.455 20.047 14.5C20.047 17.545 17.5784 20.01 14.529 20.01ZM14.529 10.933C12.38 10.933 10.6375 12.528 10.6375 14.5C10.6375 16.472 12.38 18.067 14.529 18.067C16.6781 18.067 18.4206 16.472 18.4206 14.5C18.4206 12.528 16.6781 10.933 14.529 10.933Z" transform="translate(29) scale(-1 1)" fill="#666666"/>
</svg>
