<svg width="30" height="30" viewBox="0 0 30 30" fill="none" xmlns="http://www.w3.org/2000/svg">
<path d="M15 0C6.71053 0 0 6.71053 0 15C0 23.2895 6.71053 30 15 30C23.2895 30 30 23.2895 30 15C30 6.71053 23.2895 0 15 0ZM15 27.4342C8.14145 27.4342 2.56579 21.8586 2.56579 15C2.56579 8.14145 8.14145 2.56579 15 2.56579C21.8586 2.56579 27.4342 8.14145 27.4342 15C27.4342 21.8586 21.8586 27.4342 15 27.4342Z" fill="#666666"/>
<path d="M1.43092 2.86184C2.22039 2.86184 2.86184 2.2204 2.86184 1.43092C2.86184 0.641448 2.22039 0 1.43092 0C0.641447 0 0 0.641448 0 1.43092C0 2.2204 0.641447 2.86184 1.43092 2.86184Z" transform="translate(13.5693 8.78296)" fill="#666666"/>
<path d="M2.02303 0H0.296053C0.148027 0 0 0.148026 0 0.296053V6.95724C0 7.10526 0.148027 7.25329 0.296053 7.25329H2.02303C2.17105 7.25329 2.31908 7.10526 2.31908 6.95724V0.296053C2.26974 0.148026 2.17105 0 2.02303 0Z" transform="translate(13.8647 13.9639)" fill="#666666"/>
</svg>
