<svg width="22" height="23" viewBox="0 0 22 23" fill="none" xmlns="http://www.w3.org/2000/svg">
<path d="M18.0145 0.622507V2.19516C18.0145 2.32621 18.1101 2.4245 18.2377 2.4245H19.9913V20.9687H1.97681V2.45727H3.73043C3.85797 2.45727 3.95362 2.35897 3.95362 2.22792V0.622507C3.95362 0.491453 3.85797 0.393162 3.73043 0.393162H0.86087C0.382609 0.393162 0 0.819088 0 1.31054V22.0826C0 22.5741 0.382609 23 0.892754 23H21.1072C21.5855 23 22 22.6068 22 22.0826V1.31054C22 0.819088 21.6174 0.393162 21.1072 0.393162H18.2377C18.1101 0.425926 18.0145 0.524217 18.0145 0.622507ZM10.8087 0.0982906L7.58841 4.25926C7.46087 4.42308 7.58841 4.65242 7.77971 4.65242H9.94783V13.8917C9.94783 14.0228 10.0435 14.1211 10.171 14.1211H11.7652C11.8928 14.1211 11.9884 14.0228 11.9884 13.8917V4.65242H14.1565C14.3478 4.65242 14.4435 4.42308 14.3478 4.25926L11.1594 0.0982906C11.0638 -0.0327635 10.9043 -0.0327635 10.8087 0.0982906Z" fill="#666666"/>
</svg>
