<svg width="22" height="22" viewBox="0 0 22 22" fill="none" xmlns="http://www.w3.org/2000/svg">
<path d="M21.1137 1.96956H16.4852V0.216652C16.4852 0.0984781 16.3868 0 16.2686 0H14.7323C14.6141 0 14.5157 0.0984781 14.5157 0.216652V1.96956H7.48433V0.216652C7.48433 0.0984781 7.38586 0 7.24799 0H5.71173C5.59355 0 5.49508 0.0984781 5.49508 0.216652V1.96956H0.886303C0.393912 1.96956 0 2.36347 0 2.85586V21.1137C0 21.6061 0.393912 22 0.886303 22H21.1137C21.6061 22 22 21.6061 22 21.1137V2.85586C21.9803 2.36347 21.5864 1.96956 21.1137 1.96956ZM20.0107 20.0107H1.96956V3.95882H5.49508V5.27842C5.49508 5.3966 5.59355 5.49508 5.71173 5.49508H7.24799C7.36616 5.49508 7.46464 5.3966 7.46464 5.27842V3.95882H14.496V5.27842C14.496 5.3966 14.5944 5.49508 14.7126 5.49508H16.2489C16.3671 5.49508 16.4655 5.3966 16.4655 5.27842V3.95882H19.991V20.0107H20.0107ZM15.8353 8.46911H14.3187C14.1808 8.46911 14.043 8.5282 13.9642 8.64637L9.80842 14.3581L8.03581 11.9158C7.95703 11.7977 7.81916 11.7386 7.68129 11.7386H6.16473C5.98747 11.7386 5.88899 11.9355 5.98747 12.0931L9.45389 16.8594C9.63116 17.0958 9.98568 17.0958 10.1629 16.8594L16.0125 8.82364C16.111 8.66607 16.0125 8.46911 15.8353 8.46911Z" fill="#666666"/>
</svg>
