<svg width="28" height="28" viewBox="0 0 28 28" fill="none" xmlns="http://www.w3.org/2000/svg">
<path d="M19.7566 12.9868H15.0132V8.24342C15.0132 8.10526 14.9211 8.01316 14.7829 8.01316H13.2632C13.125 8.01316 13.0329 8.10526 13.0329 8.24342V12.9868H8.24342C8.10526 12.9868 8.01316 13.0789 8.01316 13.2171V14.7368C8.01316 14.875 8.10526 14.9671 8.24342 14.9671H12.9868V19.7105C12.9868 19.8487 13.0789 19.9408 13.2171 19.9408H14.7368C14.875 19.9408 14.9671 19.8487 14.9671 19.7105V15.0132H19.7105C19.8487 15.0132 19.9408 14.9211 19.9408 14.7829V13.2632C19.9868 13.125 19.8947 12.9868 19.7566 12.9868ZM14 0C6.26316 0 0 6.26316 0 14C0 21.7368 6.26316 28 14 28C21.7368 28 28 21.7368 28 14C28 6.26316 21.7368 0 14 0ZM14 25.6053C7.59868 25.6053 2.39474 20.4013 2.39474 14C2.39474 7.59868 7.59868 2.39474 14 2.39474C20.4013 2.39474 25.6053 7.59868 25.6053 14C25.6053 20.4013 20.4013 25.6053 14 25.6053Z" fill="#643885"/>
</svg>
