<svg width="22" height="22" viewBox="0 0 22 22" fill="none" xmlns="http://www.w3.org/2000/svg">
<path d="M21.1149 0H0.885057C0.397373 0 0 0.397373 0 0.885057V21.1149C0 21.6026 0.397373 22 0.885057 22H21.1149C21.6026 22 22 21.6026 22 21.1149V0.885057C21.9819 0.397373 21.6026 0 21.1149 0ZM20.0131 20.0131H1.98686V1.98686H20.0131V20.0131ZM10.2233 6.97208H11.7586C11.8851 6.97208 11.9754 6.88177 11.9754 6.75534V5.22003C11.9754 5.0936 11.8851 5.00328 11.7586 5.00328H10.2233C10.0969 5.00328 10.0066 5.0936 10.0066 5.22003V6.75534C10.0066 6.88177 10.0969 6.97208 10.2233 6.97208ZM5.22003 11.9754H6.75534C6.88177 11.9754 6.97208 11.8851 6.97208 11.7586V10.2233C6.97208 10.0969 6.88177 10.0066 6.75534 10.0066H5.22003C5.0936 10.0066 5.00328 10.0969 5.00328 10.2233V11.7586C5.00328 11.8851 5.0936 11.9754 5.22003 11.9754ZM15.2266 11.9754H16.7619C16.8883 11.9754 16.9787 11.8851 16.9787 11.7586V10.2233C16.9787 10.0969 16.8883 10.0066 16.7619 10.0066H15.2266C15.1002 10.0066 15.0099 10.0969 15.0099 10.2233V11.7586C15.0099 11.8851 15.1002 11.9754 15.2266 11.9754ZM10.2233 11.9754H11.7586C11.8851 11.9754 11.9754 11.8851 11.9754 11.7586V10.2233C11.9754 10.0969 11.8851 10.0066 11.7586 10.0066H10.2233C10.0969 10.0066 10.0066 10.0969 10.0066 10.2233V11.7586C10.0066 11.8851 10.0969 11.9754 10.2233 11.9754ZM10.2233 16.9787H11.7586C11.8851 16.9787 11.9754 16.8883 11.9754 16.7619V15.2266C11.9754 15.1002 11.8851 15.0099 11.7586 15.0099H10.2233C10.0969 15.0099 10.0066 15.1002 10.0066 15.2266V16.7619C10.0066 16.8883 10.0969 16.9787 10.2233 16.9787Z" fill="#666666"/>
</svg>
