<svg width="19" height="22" viewBox="0 0 19 22" fill="none" xmlns="http://www.w3.org/2000/svg">
<path d="M16.2438 5.665V1.98H18.7654C18.8944 1.98 19 1.881 19 1.76V0.22C19 0.099 18.8944 0 18.7654 0H0.234568C0.105556 0 0 0.099 0 0.22V1.76C0 1.881 0.105556 1.98 0.234568 1.98H2.75617V5.665C2.75617 7.90625 3.99938 9.878 5.87593 11C3.99938 12.122 2.75617 14.0938 2.75617 16.335V20.02H0.234568C0.105556 20.02 0 20.119 0 20.24V21.78C0 21.901 0.105556 22 0.234568 22H18.7654C18.8944 22 19 21.901 19 21.78V20.24C19 20.119 18.8944 20.02 18.7654 20.02H16.2438V16.335C16.2438 14.0938 15.0006 12.122 13.1241 11C15.0006 9.878 16.2438 7.90625 16.2438 5.665ZM14.1327 16.335V20.02H4.86728V16.335C4.86728 15.1745 5.34815 14.0827 6.22485 13.2632C7.09861 12.441 8.26265 11.99 9.5 11.99C10.7373 11.99 11.9014 12.441 12.7752 13.2632C13.6519 14.0827 14.1327 15.1745 14.1327 16.335ZM14.1327 5.665C14.1327 6.8255 13.6519 7.91725 12.7752 8.73675C11.9014 9.559 10.7373 10.01 9.5 10.01C8.26265 10.01 7.09861 9.559 6.22485 8.73675C5.34815 7.91725 4.86728 6.8255 4.86728 5.665V1.98H14.1327V5.665Z" fill="#666666"/>
</svg>
