<svg width="22" height="22" viewBox="0 0 22 22" fill="none" xmlns="http://www.w3.org/2000/svg">
<path d="M18.0285 0.616103V2.13069C18.0285 2.25904 18.133 2.33606 18.2375 2.33606H20.0143V20.049H1.98575V2.33606H3.76247C3.89311 2.33606 3.9715 2.23337 3.9715 2.13069V0.616103C3.9715 0.487748 3.86698 0.410735 3.76247 0.410735H0.888361C0.391924 0.385064 0 0.770128 0 1.25788V21.1272C0 21.6149 0.391924 22 0.888361 22H21.1116C21.6081 22 22 21.6149 22 21.1272V1.25788C22 0.770128 21.6081 0.385064 21.1116 0.385064H18.2375C18.1069 0.385064 18.0285 0.487748 18.0285 0.616103ZM11.1829 13.4259L14.3705 9.42124C14.5012 9.26721 14.3705 9.06184 14.1876 9.06184H12.019V0.231039C12.019 0.102684 11.9145 0 11.7838 0H10.19C10.0594 0 9.95487 0.102684 9.95487 0.231039V9.06184H7.78622C7.60333 9.06184 7.47268 9.29288 7.60333 9.42124L10.8171 13.4002C10.8955 13.5286 11.0784 13.5286 11.1829 13.4259Z" fill="#666666"/>
</svg>
