<svg width="23" height="19" viewBox="0 0 23 19" fill="none" xmlns="http://www.w3.org/2000/svg">
<path d="M14.6549 17.8331H14.7566C12.7467 17.5794 12.594 16.235 12.5686 15.9559H15.5199V12.7597H1.50111C1.34845 12.7597 1.24668 12.6328 1.24668 12.506V1.49666C1.24668 1.34446 1.37389 1.24299 1.50111 1.24299H5.47013H5.90266H14.6803H15.5199H19.0819C19.2345 1.24299 19.3363 1.36983 19.3363 1.49666V6.8745H20.5575V1.49666C20.5575 0.659546 19.896 0 19.0819 0H15.5199H14.6803H5.87721H5.44469H1.50111C0.661504 0 0 0.659546 0 1.49666V12.4806C0 12.4806 0 12.4806 0 12.506V14.51V14.5354V14.6368V14.6622V14.6876C0.0254425 15.3979 0.610619 15.9559 1.32301 15.9559H7.98894C7.98894 16.2603 7.81084 17.5794 5.80088 17.8331H5.87721C5.5719 17.8331 5.29204 18.0868 5.29204 18.4166C5.29204 18.721 5.54646 19 5.87721 19H14.6549C14.9602 19 15.24 18.7463 15.24 18.4166C15.24 18.0868 14.9856 17.8331 14.6549 17.8331ZM10.2788 15.1949C9.87168 15.1949 9.54093 14.8652 9.54093 14.4593C9.54093 14.0534 9.87168 13.7236 10.2788 13.7236C10.6858 13.7236 11.0166 14.0534 11.0166 14.4593C11.0166 14.8652 10.6858 15.1949 10.2788 15.1949ZM21.4226 7.58478H17.9878C17.1228 7.58478 16.4104 8.29506 16.4104 9.15754V17.3765C16.4104 18.239 17.1228 18.9493 17.9878 18.9493H21.4226C22.2876 18.9493 23 18.239 23 17.3765V9.15754C23 8.29506 22.2876 7.58478 21.4226 7.58478ZM19.7179 18.0868C19.3617 18.0868 19.0819 17.8077 19.0819 17.4526C19.0819 17.0975 19.3617 16.8184 19.7179 16.8184C20.0741 16.8184 20.354 17.0975 20.354 17.4526C20.354 17.8077 20.0487 18.0868 19.7179 18.0868Z" fill="#666666"/>
</svg>
