<svg width="22" height="22" viewBox="0 0 22 22" fill="none" xmlns="http://www.w3.org/2000/svg">
<path d="M1.83333 0H0.229167C0.103125 0 0 0.103125 0 0.229167V1.83333C0 1.95938 0.103125 2.0625 0.229167 2.0625H1.83333C1.95938 2.0625 2.0625 1.95938 2.0625 1.83333V0.229167C2.0625 0.103125 1.95938 0 1.83333 0Z" transform="translate(16.9585) scale(-1 1)" fill="#643885"/>
<path d="M1.83333 0H0.229167C0.103125 0 0 0.103125 0 0.229167V1.83333C0 1.95938 0.103125 2.0625 0.229167 2.0625H1.83333C1.95938 2.0625 2.0625 1.95938 2.0625 1.83333V0.229167C2.0625 0.103125 1.95938 0 1.83333 0Z" transform="translate(17.0156 19.9375) scale(-1 1)" fill="#643885"/>
<path d="M1.83333 0H0.229167C0.103125 0 0 0.103125 0 0.229167V1.83333C0 1.95938 0.103125 2.0625 0.229167 2.0625H1.83333C1.95938 2.0625 2.0625 1.95938 2.0625 1.83333V0.229167C2.0625 0.103125 1.95938 0 1.83333 0Z" transform="translate(2.0625 14.9531) scale(-1 1)" fill="#643885"/>
<path d="M1.83333 0H0.229167C0.103125 0 0 0.103125 0 0.229167V1.83333C0 1.95938 0.103125 2.0625 0.229167 2.0625H1.83333C1.95938 2.0625 2.0625 1.95938 2.0625 1.83333V0.229167C2.0625 0.103125 1.95938 0 1.83333 0Z" transform="translate(2.0625 19.9375) scale(-1 1)" fill="#643885"/>
<path d="M1.83333 0H0.229167C0.103125 0 0 0.103125 0 0.229167V1.83333C0 1.95938 0.103125 2.0625 0.229167 2.0625H1.83333C1.95938 2.0625 2.0625 1.95938 2.0625 1.83333V0.229167C2.0625 0.103125 1.95938 0 1.83333 0Z" transform="translate(22) scale(-1 1)" fill="#643885"/>
<path d="M1.83333 0H0.229167C0.103125 0 0 0.103125 0 0.229167V1.83333C0 1.95938 0.103125 2.0625 0.229167 2.0625H1.83333C1.95938 2.0625 2.0625 1.95938 2.0625 1.83333V0.229167C2.0625 0.103125 1.95938 0 1.83333 0Z" transform="translate(22 4.98438) scale(-1 1)" fill="#643885"/>
<path d="M1.83333 0H0.229167C0.103125 0 0 0.103125 0 0.229167V1.83333C0 1.95938 0.103125 2.0625 0.229167 2.0625H1.83333C1.95938 2.0625 2.0625 1.95938 2.0625 1.83333V0.229167C2.0625 0.103125 1.95938 0 1.83333 0Z" transform="translate(22 9.96875) scale(-1 1)" fill="#643885"/>
<path d="M1.83333 0H0.229167C0.103125 0 0 0.103125 0 0.229167V1.83333C0 1.95938 0.103125 2.0625 0.229167 2.0625H1.83333C1.95938 2.0625 2.0625 1.95938 2.0625 1.83333V0.229167C2.0625 0.103125 1.95938 0 1.83333 0Z" transform="translate(2.0625) scale(-1 1)" fill="#643885"/>
<path d="M1.83333 0H0.229167C0.103125 0 0 0.103125 0 0.229167V1.83333C0 1.95938 0.103125 2.0625 0.229167 2.0625H1.83333C1.95938 2.0625 2.0625 1.95938 2.0625 1.83333V0.229167C2.0625 0.103125 1.95938 0 1.83333 0Z" transform="translate(2.0625 4.98438) scale(-1 1)" fill="#643885"/>
<path d="M1.83333 0H0.229167C0.103125 0 0 0.103125 0 0.229167V1.83333C0 1.95938 0.103125 2.0625 0.229167 2.0625H1.83333C1.95938 2.0625 2.0625 1.95938 2.0625 1.83333V0.229167C2.0625 0.103125 1.95938 0 1.83333 0Z" transform="translate(2.0625 9.96875) scale(-1 1)" fill="#643885"/>
<path d="M1.83333 0H0.229167C0.103125 0 0 0.103125 0 0.229167V1.83333C0 1.95938 0.103125 2.0625 0.229167 2.0625H1.83333C1.95938 2.0625 2.0625 1.95938 2.0625 1.83333V0.229167C2.0625 0.103125 1.95938 0 1.83333 0Z" transform="translate(22 14.9531) scale(-1 1)" fill="#643885"/>
<path d="M1.83333 0H0.229167C0.103125 0 0 0.103125 0 0.229167V1.83333C0 1.95938 0.103125 2.0625 0.229167 2.0625H1.83333C1.95938 2.0625 2.0625 1.95938 2.0625 1.83333V0.229167C2.0625 0.103125 1.95938 0 1.83333 0Z" transform="translate(22 19.9375) scale(-1 1)" fill="#643885"/>
<path d="M1.83333 0H0.229167C0.103125 0 0 0.103125 0 0.229167V1.83333C0 1.95938 0.103125 2.0625 0.229167 2.0625H1.83333C1.95938 2.0625 2.0625 1.95938 2.0625 1.83333V0.229167C2.0625 0.103125 1.95938 0 1.83333 0Z" transform="translate(12.0312 19.9375) scale(-1 1)" fill="#643885"/>
<path d="M1.83333 0H0.229167C0.103125 0 0 0.103125 0 0.229167V1.83333C0 1.95938 0.103125 2.0625 0.229167 2.0625H1.83333C1.95938 2.0625 2.0625 1.95938 2.0625 1.83333V0.229167C2.0625 0.103125 1.95938 0 1.83333 0Z" transform="translate(7.04688 19.9375) scale(-1 1)" fill="#643885"/>
<path d="M1.83333 0H0.229167C0.103125 0 0 0.103125 0 0.229167V1.83333C0 1.95938 0.103125 2.0625 0.229167 2.0625H1.83333C1.95938 2.0625 2.0625 1.95938 2.0625 1.83333V0.229167C2.0625 0.103125 1.95938 0 1.83333 0Z" transform="translate(12.0312) scale(-1 1)" fill="#643885"/>
<path d="M1.83333 0H0.229167C0.103125 0 0 0.103125 0 0.229167V1.83333C0 1.95938 0.103125 2.0625 0.229167 2.0625H1.83333C1.95938 2.0625 2.0625 1.95938 2.0625 1.83333V0.229167C2.0625 0.103125 1.95938 0 1.83333 0Z" transform="translate(7.04688) scale(-1 1)" fill="#643885"/>
</svg>
