<svg width="21" height="21" viewBox="0 0 21 21" fill="none" xmlns="http://www.w3.org/2000/svg">
<path d="M18.4301 10.6842C18.4301 10.3526 18.3934 10.0579 18.3566 9.72632L21 7.84737L19.5315 5.34211L18.1364 2.94737L15.0892 4.27368C14.6486 3.94211 14.1713 3.68421 13.6941 3.46316H13.7675L13.4371 0H10.5367H7.78322L7.37937 3.42632C6.9021 3.64737 6.42483 3.90526 5.98427 4.2V4.16316L2.90035 2.76316L1.43182 5.26842L0.0367133 7.66316L2.68007 9.65263C2.68007 9.98421 2.64336 10.3158 2.64336 10.6842C2.64336 10.9053 2.64336 11.1263 2.68007 11.3842L0 13.3L1.46853 15.8053L2.86364 18.2L5.76399 16.9474C6.24126 17.3158 6.79196 17.6474 7.37937 17.9053L7.67308 21H10.5734H13.3269L13.6941 17.9789C14.2815 17.7211 14.8322 17.3895 15.3094 17.0211L18.1364 18.3105L19.6049 15.8053L21 13.4105L18.4668 11.4947C18.4301 11.2 18.4301 10.9421 18.4301 10.6842ZM10.5367 14.0737C8.66434 14.0737 7.15909 12.5632 7.15909 10.6842C7.15909 8.80526 8.66434 7.29474 10.5367 7.29474C12.4091 7.29474 13.9143 8.80526 13.9143 10.6842C13.9143 12.5632 12.4091 14.0737 10.5367 14.0737Z" fill="#666666"/>
</svg>
