<svg width="22" height="23" viewBox="0 0 22 23" fill="none" xmlns="http://www.w3.org/2000/svg">
<path d="M0.338462 3.19325C0.211538 3.10694 0 3.19325 0 3.36585L0.0423077 8.32833C0.0423077 8.45779 0.169231 8.58724 0.296154 8.54409L4.99231 7.37899C5.16154 7.33584 5.20385 7.12008 5.07692 6.99062L3.46923 5.69606C3.68077 5.394 3.93462 5.09193 4.23077 4.83302C5.07692 3.96998 6.05 3.27955 7.15 2.80488C8.29231 2.33021 9.47692 2.07129 10.7462 2.07129C11.9731 2.07129 13.2 2.33021 14.3423 2.80488C15.4423 3.27955 16.4154 3.96998 17.2615 4.83302C18.1077 5.69606 18.7846 6.68856 19.25 7.81051C19.7154 8.97561 19.9692 10.1839 19.9692 11.4784C19.9692 12.773 19.7154 13.9812 19.25 15.1463C18.7846 16.2683 18.1077 17.2608 17.2615 18.1238C16.4154 18.9869 15.4423 19.6773 14.3423 20.152C13.2 20.6266 12.0154 20.8856 10.7462 20.8856C9.51923 20.8856 8.29231 20.6266 7.15 20.152C6.05 19.6773 5.07692 18.9869 4.23077 18.1238C3.38462 17.2608 2.70769 16.2683 2.24231 15.1463C2.2 15.0169 2.11538 14.8874 2.07308 14.758C2.03077 14.6285 1.90385 14.5854 1.81923 14.6285L0.296154 15.1463C0.169231 15.1895 0.126923 15.3189 0.169231 15.4484C1.73462 19.8499 5.88077 23 10.7462 23C16.9654 23 22 17.8218 22 11.4784C22 5.13509 16.9654 0 10.7462 0C7.15 0 3.93462 1.72608 1.86154 4.4015L0.338462 3.19325Z" fill="#666666"/>
<path d="M5.68675 8.06942L2.04829 4.35835V0.21576C2.04829 0.0863039 1.92137 0 1.79445 0H0.271371C0.144448 0 0.0175244 0.0863039 0.0175244 0.21576V5.00563V5.04878C-0.0247833 5.13508 0.0175245 5.22139 0.0598322 5.26454L4.2906 9.57974C4.37522 9.66604 4.54445 9.66604 4.62906 9.57974L5.72906 8.45779C5.77137 8.32833 5.81368 8.15572 5.68675 8.06942Z" transform="translate(9.88232 6.42969)" fill="#666666"/>
</svg>
