<svg width="20" height="21" viewBox="0 0 20 21" fill="none" xmlns="http://www.w3.org/2000/svg">
<path d="M8.08314 0C8.06005 0 8.06005 0 8.08314 0H2.74827H2.72517H1.57044C0.715935 0 0 0.711864 0 1.61356V4.0339C0 4.91186 0.692841 5.64746 1.57044 5.64746H8.08314C8.56813 5.62373 8.56813 5.12542 8.56813 5.12542V0.522034C8.56813 0.522034 8.56813 0 8.08314 0ZM2.21709 3.72542C1.7321 3.72542 1.33949 3.32203 1.33949 2.82373C1.33949 2.32542 1.7321 1.92203 2.21709 1.92203C2.70208 1.92203 3.09469 2.32542 3.09469 2.82373C3.11778 3.32203 2.72517 3.72542 2.21709 3.72542Z" transform="translate(11.4316 9.53894)" fill="#888888"/>
<path d="M13.0023 4.81695H14.1109C14.134 4.81695 14.157 4.81695 14.1801 4.81695H18.8222V1.63729C18.8222 1.63729 18.8222 0.0237289 17.2517 0.0237289H7.66744C8.15243 0.901695 8.40647 1.70847 8.54504 2.3017H10.0924C10.6467 2.3017 10.9238 2.9661 10.5312 3.39322L6.58199 7.61695C6.32795 7.87797 5.93534 7.87797 5.68129 7.61695L1.7552 3.36949C1.38568 2.9661 1.66282 2.27797 2.194 2.27797H3.4873C3.37182 1.70847 3.11778 0.925424 2.6097 0H1.57044C0.692841 0.0237288 0 0.735593 0 1.63729V15.8508C0 16.7288 0.692841 17.4644 1.57044 17.4644H17.2517C18.8222 17.4644 18.8222 15.8508 18.8222 15.8508V12.8136H13.0023C11.5012 12.8136 10.2771 11.5559 10.2771 10.0136V7.61695C10.2771 6.07458 11.5012 4.81695 13.0023 4.81695Z" transform="translate(0 3.53564)" fill="#888888"/>
<path d="M0 0C3.76443 3.51186 3.60277 6.78644 3.60277 6.78644H1.98614L5.2194 10.2508L8.45266 6.78644H6.83603C6.83603 6.78644 6.5358 1.37627 0 0Z" transform="translate(0.923828)" fill="#888888"/>
</svg>
