<svg width="23" height="20" viewBox="0 0 23 20" fill="none" xmlns="http://www.w3.org/2000/svg">
<path d="M14.9527 14.6667C13.2263 14.6667 11.8187 13.2245 11.8187 11.4558V8.70748C11.8187 6.93878 13.2263 5.4966 14.9527 5.4966H16.2275C16.254 5.4966 16.2806 5.4966 16.3072 5.4966H21.6455V1.85034C21.6455 1.85034 21.6455 0 19.8395 0H1.806C0.796767 0 0 0.816327 0 1.85034V18.1497C0 19.1565 0.796767 20 1.806 20H19.8395C21.6455 20 21.6455 18.1497 21.6455 18.1497V14.6667H14.9527Z" fill="#20A9D3"/>
<path d="M9.29561 0C9.26905 0 9.26905 0 9.29561 0H3.16051H3.13395H1.806C0.823326 0 0 0.816326 0 1.85034V4.62585C0 5.63265 0.796767 6.47619 1.806 6.47619H9.29561C9.85335 6.44898 9.85335 5.87755 9.85335 5.87755V0.598639C9.85335 0.598639 9.85335 0 9.29561 0ZM2.54965 4.27211C1.99192 4.27211 1.54042 3.80952 1.54042 3.23809C1.54042 2.66667 1.99192 2.20408 2.54965 2.20408C3.10739 2.20408 3.55889 2.66667 3.55889 3.23809C3.58545 3.80952 3.13395 4.27211 2.54965 4.27211Z" transform="translate(13.1465 6.85718)" fill="#20A9D3"/>
</svg>
